<?xml version="1.0" encoding="UTF-8"?>
<svg id="Layer_2" data-name="Layer 2" xmlns="http://www.w3.org/2000/svg" width="1177.981198" height="552.414114" viewBox="0 0 1177.981198 552.414114">
  <g id="Journeyman">
    <polygon points="1120.375402 503.36936 1120.850787 505.862574 1121.275775 508.147682 1122.194834 510.355453 1122.72519 512.651971 1123.525188 514.950989 1121.911964 517.373913 1122.689767 519.685341 1123.941538 522.102643 1121.553549 524.240155 1122.267422 526.680208 1122.878417 529.227302 1120.701497 531.087166 1120.122108 533.330883 1120.601509 536.108712 1118.660983 537.802766 1117.195478 539.654622 1115.235289 541.061001 1113.725768 542.755914 1112.419599 544.731395 1111.234299 547.112966 1109.220917 548.494144 1106.707035 548.843857 1104.750969 550.421589 1101.934209 549.396738 1100.07353 551.796061 1097.587919 551.667376 1095.082652 550.382226 1092.788481 552.229019 1090.45233 550.926564 1088.114519 550.786246 1085.798641 550.414002 1083.38295 550.288043 1080.961487 549.927834 1078.552177 549.345482 1077.345895 546.560878 1074.384084 546.765821 1072.492107 545.216284 1071.495341 542.73514 1070.49851 540.478789 1068.636761 539.028347 1066.572539 537.603419 1065.085183 535.701486 1064.935644 533.114891 1064.198576 530.897617 1062.385512 529.028622 1062.282997 526.588553 1062.125392 524.164501 1060.669336 521.893983 1061.765889 519.408722 1061.811032 517.027716 1061.361133 514.5243 1063.150736 512.488948 1062.693558 509.795598 1063.256396 507.317353 1064.617713 505.213054 1066.911441 503.844394 1068.22084 501.788238 1069.968528 500.103935 1071.515082 498.155756 1074.339864 497.918333 1076.00723 496.116629 1077.69277 494.177846 1079.992831 493.317454 1081.911088 491.587437 1084.694161 492.029406 1086.884471 490.970398 1088.984329 489.45224 1091.565721 489.735659 1093.775956 488.381458 1095.92938 488.161799 1096.528201 486.142827 1097.828658 484.115064 1100.092588 482.514523 1099.856223 479.79579 1100.178184 477.333233 1103.125278 476.010267 1103.024018 473.366517 1104.422722 471.365814 1105.869774 469.380816 1106.63675 467.110345 1106.820678 464.603385 1108.096093 462.549815 1107.86946 459.893172 1109.75798 458.080728 1110.179956 455.686772 1111.610763 453.685803 1111.580478 451.121871 1113.625506 449.348738 1113.356846 446.701272 1114.990913 444.765447 1115.303787 442.340166 1116.450801 440.220096 1117.1827 437.948797 1116.739049 435.262519 1118.835921 433.473365 1119.247392 431.091498 1120.451094 428.982893 1120.137444 426.358344 1122.562798 424.656313 1123.336243 422.396139 1122.459831 419.597411 1122.972753 417.258737 1125.17039 415.45835 1124.897703 412.868877 1125.993919 410.712562 1127.449242 408.663562 1127.412552 406.155783 1128.252736 403.916276 1128.276096 401.433583 1129.563509 399.325271 1129.082496 396.701694 1129.949488 394.470653 1131.414073 392.405989 1131.428704 389.93271 1133.022392 387.896335 1133.825217 385.639079 1134.246494 383.278749 1135.513967 381.141996 1134.520667 378.414932 1135.9874 376.327342 1137.186837 374.165898 1136.333392 371.491408 1138.268821 369.507635 1138.180776 367.027695 1138.995967 364.765968 1139.878597 362.517819 1139.905345 360.071329 1141.086707 357.888163 1140.037797 355.207208 1141.870105 353.163586 1142.718787 350.899967 1141.482732 348.197422 1143.84142 346.246255 1142.901502 343.616189 1144.056573 341.410675 1143.514846 338.871585 1145.247719 336.770998 1144.573461 334.214115 1144.920625 331.85124 1146.930628 329.783238 1145.252254 327.064359 1145.805949 324.739274 1147.664072 322.627353 1146.426737 320.006916 1148.012406 317.840444 1149.005962 315.573645 1149.255902 313.191721 1149.244069 310.773163 1149.049595 308.332333 1149.171517 305.938507 1150.056402 303.645198 1150.140874 301.246615 1149.620862 298.777218 1151.099085 296.546415 1150.354121 294.057634 1150.477494 291.670636 1151.186554 289.344302 1152.094629 287.032686 1152.306513 284.650633 1151.729945 282.200299 1151.438958 279.781154 1153.254975 277.528318 1152.710077 275.090152 1152.436645 272.677409 1153.656861 270.360253 1152.18301 267.881981 1153.393165 265.555726 1154.475351 263.211909 1152.921047 260.754247 1153.675743 258.392382 1154.472918 256.024087 1154.217651 253.624328 1153.481329 251.220515 1153.170656 248.830282 1152.761601 246.443848 1153.554877 244.060054 1153.818549 241.670954 1154.351984 239.274359 1153.185746 236.906771 1152.829368 234.5313 1153.768835 232.11504 1153.16697 229.748905 1152.645489 227.385947 1153.951383 224.927692 1153.890432 222.534393 1151.966146 220.269767 1153.597166 217.753751 1153.699077 215.34042 1152.053624 213.084388 1151.682701 210.7229 1151.089205 208.388056 1151.028819 205.996895 1152.331159 203.432143 1152.084395 201.047497 1150.439276 198.860787 1150.54117 196.433333 1150.802149 193.972413 1150.763274 191.550753 1148.197327 189.574906 1147.901403 187.211919 1149.176493 184.533906 1148.300085 182.26773 1146.880228 180.129378 1146.518336 177.767758 1145.26826 175.61714 1145.830439 173.025979 1145.300861 170.697172 1144.396071 168.469468 1144.170349 166.051399 1142.598007 164.02779 1143.427371 161.277651 1142.472198 159.066216 1140.012851 157.373251 1139.768891 155.206706 1138.578071 153.101314 1136.494941 151.845495 1134.879695 150.075232 1133.507953 148.043243 1131.457095 146.747994 1129.95082 144.860623 1127.944698 143.515207 1125.837263 142.282462 1124.071325 140.685779 1123.026929 138.290291 1121.614227 136.302431 1118.777266 135.863595 1117.829037 133.360309 1115.229096 132.663954 1114.319062 130.115772 1112.705323 128.329569 1110.98636 127.375927 1112.605623 126.310079 1114.336606 124.568807 1115.986852 122.710053 1118.889817 122.600748 1120.280971 120.378416 1121.542155 117.967802 1124.353218 117.601378 1122.343215 115.784411 1121.125207 113.776906 1119.882068 111.786244 1120.368276 108.746753 1117.8568 107.524017 1117.133218 105.201549 1116.545317 102.776614 1113.548091 101.928697 1112.859833 99.566404 1111.83048 97.42176 1109.670515 96.066816 1108.607367 93.944267 1107.384478 91.929723 1106.979386 89.29435 1105.595731 87.379439 1102.618109 86.711765 1101.576763 84.54514 1100.540371 82.361342 1098.358297 81.117638 1096.733943 79.422097 1095.849421 77.091448 1094.664829 75.002035 1092.645724 73.644365 1090.82181 72.124528 1089.534282 70.117933 1088.212884 68.135167 1086.883869 66.14719 1084.316754 65.346926 1082.36704 63.96575 1080.875728 62.010379 1080.147605 59.324457 1077.673028 57.552557 1076.87465 60.403439 1077.618986 63.118088 1075.455485 65.439526 1077.054531 67.776428 1076.673113 70.182771 1076.8377 72.54852 1076.046256 74.9689 1076.110743 77.33477 1077.473339 79.640984 1077.133992 82.029198 1076.561242 84.4204 1076.471501 86.790473 1078.100312 89.119773 1077.164247 91.510594 1078.480454 93.864678 1078.523862 96.240623 1077.421537 98.617134 1078.491301 100.992948 1077.942907 103.363139 1077.956504 105.736763 1077.101207 108.09186 1077.519864 110.473112 1076.730537 112.819836 1077.17122 115.206072 1076.916775 117.567587 1077.890053 119.988098 1075.997292 122.263315 1076.396362 124.657489 1076.055741 127.008956 1075.308149 129.329489 1076.99018 131.829597 1076.347265 134.159437 1075.958235 136.506585 1076.424554 138.931078 1075.929761 141.268752 1075.927392 143.654463 1074.675782 145.907027 1075.175964 148.348612 1074.984624 150.715887 1074.306127 153.023407 1073.016592 155.247458 1072.815726 157.608259 1074.064664 160.173976 1072.090624 162.28656 1073.449413 164.885335 1071.811731 167.033747 1072.13769 169.486071 1071.94056 171.858523 1071.949587 174.268488 1071.540895 176.608674 1069.677789 178.683264 1069.024934 180.970151 1068.450615 183.269945 1067.785394 185.550389 1067.312369 187.867831 1067.179811 190.256394 1066.908329 192.618899 1067.835142 195.246679 1065.767649 197.216815 1066.684583 199.856851 1064.189312 201.709646 1063.625796 204.006354 1064.419956 206.63652 1064.085574 208.997777 1063.098699 211.194401 1063.065039 213.636075 1061.286899 215.618647 1060.818577 217.945216 1060.047332 220.189379 1060.497376 222.777245 1058.266203 224.604667 1059.04098 227.29684 1057.893778 229.430476 1056.974325 231.628307 1056.971151 234.106998 1055.122736 236.012648 1054.863804 238.414619 1053.377328 240.422215 1053.597587 242.986047 1052.58967 245.147492 1053.15243 247.8425 1052.324163 250.069347 1050.478019 251.937016 1050.578033 254.489929 1049.434529 256.600916 1047.187518 258.301332 1047.272252 260.858474 1047.081358 263.320946 1045.9692 265.435642 1045.817555 267.922691 1044.703956 270.036333 1043.080512 271.942319 1042.814005 274.392885 1041.756608 276.524376 1041.103756 278.823335 1039.51333 280.727114 1039.032187 283.10024 1037.593111 285.060846 1037.130669 287.447544 1034.97784 289.083208 1035.334031 291.842263 1033.599793 293.655993 1033.581482 296.206206 1032.981879 298.45958 1030.65782 300.309313 1030.211959 302.69908 1030.542169 305.186609 1029.23872 307.473804 1029.07445 309.895205 1029.441649 312.326139 1029.588834 314.729885 1030.827441 317.130457 1029.739763 319.514123 1030.671816 321.930999 1029.303961 324.259394 1030.540336 326.834412 1028.932994 328.980821 1028.36534 331.488243 1026.315624 333.264377 1023.668348 332.560652 1021.139291 333.891609 1018.745794 333.164291 1016.661761 331.728554 1014.766692 331.678124 1013.908611 333.146074 1011.15333 334.237848 1010.663913 336.724026 1009.13435 338.565521 1008.372777 340.890036 1006.208339 342.325196 1005.638382 344.776233 1005.181821 347.308195 1002.603235 348.461784 1001.773566 350.753781 999.591073 352.152776 1000.097154 355.341536 998.224589 356.945521 995.956885 358.275192 995.187743 360.621504 993.526167 362.35785 992.140462 364.282802 991.665199 366.845787 988.875497 367.783174 988.734338 370.590838 986.381193 371.825083 986.43524 374.78887 983.732222 375.760366 982.555118 377.837363 981.251328 379.823219 979.891019 381.768186 978.234061 383.491159 976.276905 384.98454 976.274157 387.960966 975.107662 390.060476 972.320884 390.910388 971.617049 393.367532 970.479071 395.492702 968.831982 397.219257 966.239854 398.191326 965.423029 400.574383 963.88062 402.37904 961.803413 403.747875 960.14289 405.451449 959.984558 408.393572 957.510287 409.425679 956.418892 411.604795 955.728164 414.127242 953.700806 415.523941 952.161219 417.332222 950.217713 418.792322 948.345719 420.309669 946.959535 422.247988 945.164074 423.827988 943.918749 425.892966 941.882387 427.255307 940.512877 429.212002 938.766042 430.829507 938.540194 433.833521 936.914529 435.568478 934.649624 436.711337 933.646051 439.021915 930.558366 439.383271 930.023188 442.139555 927.734612 443.240211 926.770492 445.602822 925.392722 447.575022 923.799 449.340841 921.664327 450.577356 920.496208 452.76143 917.892705 453.525521 915.953405 454.941517 914.816467 457.162942 913.476994 459.186557 911.213949 460.270538 909.123552 461.524132 908.133075 463.913355 905.491213 464.587362 905.163019 467.683013 903.526204 469.412311 901.768453 471.013887 899.573875 472.145289 897.291476 473.174501 895.868533 475.133102 893.31459 475.853774 891.926027 477.851856 890.85919 480.214645 888.089036 480.675492 886.647085 482.622802 885.110414 484.467656 882.877328 485.517023 881.697301 487.777093 880.388458 489.89746 877.535685 490.214109 876.432216 492.580917 874.867331 494.410415 873.063598 495.957702 870.621825 496.734231 869.446705 499.042366 866.704089 499.438636 865.62024 501.86939 862.486516 502.606754 864.318945 505.114783 863.732754 507.692462 864.718622 509.900568 864.631663 512.306114 865.591507 514.564236 865.101104 516.972859 864.929488 519.31524 865.888915 521.674857 865.363242 524.009421 864.837898 526.304521 864.0842 528.521832 864.124392 530.941439 864.028285 533.425546 862.583064 535.395647 862.291919 537.972279 860.198171 539.475131 858.353593 541.008653 857.807707 543.764382 855.465473 544.741837 854.169207 546.993211 852.053389 548.20079 849.216006 547.893762 847.026625 548.59729 845.173285 550.358086 842.640733 549.829643 840.38876 550.168357 838.155084 550.86524 835.841974 551.355235 833.518041 551.054097 831.063875 551.731042 828.90664 550.405145 826.592955 550.011656 823.969931 550.351821 821.854029 549.155235 819.793296 547.919374 818.526876 545.407088 815.508691 545.650106 814.647072 543.055249 813.389486 541.107601 810.761785 540.159783 809.299346 538.234921 809.107848 535.635585 808.577781 533.319858 807.455024 531.266446 805.957382 529.274411 806.244968 526.770205 806.118996 524.435132 805.273923 522.206124 805.125543 519.874746 804.687881 517.522841 804.052493 515.063951 804.837825 512.737142 806.556597 510.777956 806.848144 508.452974 807.21675 506.067161 809.283028 504.552954 810.834345 502.891957 811.357984 500.378133 813.276059 499.015239 814.951833 497.426569 817.119045 496.526531 818.777418 494.813914 820.91456 493.906201 822.721945 492.136635 825.09059 491.772799 827.68374 492.431897 829.627616 490.624993 831.810914 489.542737 834.165925 489.343174 836.644677 490.399448 838.864168 489.165097 840.787114 488.879064 841.320269 486.960191 843.584807 485.293159 843.233349 482.600539 845.23536 480.824833 844.611532 478.032416 846.05024 476.036237 846.928754 473.823971 848.989921 472.058778 849.075429 469.544918 849.247983 467.066924 850.33213 464.930305 850.609591 462.49477 852.343745 460.595449 853.910519 458.630576 853.084908 455.797062 854.263036 453.690811 855.922724 451.754183 856.369234 449.383712 857.467092 447.243702 858.550847 445.097032 857.893835 442.346198 858.902988 440.175041 859.650575 437.913387 860.482026 435.680087 862.548622 433.8605 862.440137 431.310206 863.459929 429.136675 863.93259 426.782588 863.677302 424.193914 866.308689 422.538377 866.451057 420.079175 867.95622 418.053261 867.660832 415.459744 869.218578 413.445905 868.946398 410.865704 868.847522 408.343878 870.25001 406.278117 870.899478 403.983854 872.777321 402.05139 872.973563 399.621461 872.607719 397.032445 872.720299 394.586225 873.48466 392.327073 875.052979 390.291021 875.932284 388.059227 876.654185 385.782949 876.984959 383.400932 878.186301 381.251652 878.296309 378.812628 878.671023 376.44532 879.903922 374.298216 880.200104 371.911124 881.602049 369.800002 882.03676 367.446695 881.272338 364.805748 881.257319 362.351965 882.805606 360.267006 883.228002 357.91612 884.289254 355.710291 884.617699 353.337698 885.517496 351.091157 886.399608 348.837734 886.468529 346.410149 887.008785 344.083075 886.347805 341.512307 887.960564 339.401644 888.482961 337.069726 889.252214 334.784112 887.612236 332.047629 889.729032 330.011442 889.657124 327.572335 890.946117 325.373097 890.602038 322.890385 890.719587 320.49004 891.686124 318.227908 891.02019 315.706577 892.565138 313.528372 892.098991 311.044877 891.467592 308.545464 893.102828 306.365721 892.15717 303.832193 893.748158 301.634082 893.754042 299.229166 893.371457 296.781333 893.669873 294.416847 895.063273 292.169989 895.507564 289.81425 894.180177 287.283865 894.519803 284.923411 896.082466 282.668058 894.962275 280.179476 896.697996 277.92259 895.243506 275.4233 896.061094 273.08997 897.34867 270.777275 895.762016 268.296878 896.561431 265.95092 896.699541 263.56914 896.602935 261.178441 897.188205 258.810702 895.929237 256.39196 895.933014 254.012376 896.654234 251.642021 897.983744 249.266556 897.310158 246.875769 897.473287 244.487667 897.916258 242.093413 896.706156 239.726463 897.287365 237.326664 897.269806 234.938422 896.8566 232.565459 896.894019 230.175369 897.186777 227.76907 896.849338 225.394503 896.102826 223.051177 896.704563 220.613041 895.329511 218.329929 895.671328 215.906988 894.352856 213.641034 895.076501 211.172695 895.578846 208.714603 894.473418 206.442701 893.955189 204.106839 894.065163 201.686617 893.129971 199.414252 893.240374 196.987877 893.260602 194.568276 891.740712 192.410089 891.524163 190.032641 891.046184 187.701055 890.332294 185.417892 890.160423 183.025196 889.54459 180.724669 889.306411 178.339453 889.625635 175.814912 888.229604 173.701654 887.40256 171.456519 887.844071 168.873535 887.146578 166.588525 886.093218 164.407873 884.514912 162.394616 884.337336 159.962339 883.300315 157.902876 883.694475 154.988399 881.327759 153.666673 880.011494 151.699879 879.098665 149.329289 876.84931 148.175494 874.584908 147.124797 873.927128 144.34348 871.749537 143.217579 869.91117 141.717085 867.949032 140.367603 866.432903 138.469288 864.038889 137.663628 862.934791 135.247831 861.208496 133.618457 859.411911 132.092415 857.325281 130.911 854.709479 130.27628 854.016529 128.373179 855.052835 126.355698 857.104731 125.149243 859.224888 124.01023 860.685588 122.172184 862.109583 120.300257 863.685687 118.580791 865.252794 116.846392 867.181123 115.402072 866.625588 112.742994 863.957448 111.605502 863.097703 109.345365 862.317556 107.023907 859.954616 105.740877 859.553957 103.157468 857.993061 101.350371 857.113946 99.070554 854.535438 97.993662 853.018452 96.175682 852.53579 93.593664 851.090101 91.714372 848.913787 90.398361 848.267894 87.902737 846.645986 86.163418 845.066164 84.394033 843.084397 82.960195 841.679014 81.055217 840.043722 79.34411 839.295217 76.860382 837.585764 75.206564 835.934659 73.50386 834.008554 72.056324 832.617131 70.117121 831.604165 67.808805 829.800988 66.249969 828.404063 64.293643 826.628841 62.706951 824.667201 61.312535 822.040668 60.62013 820.349341 58.968265 818.816935 55.640562 820.416649 58.946841 819.647785 61.38016 818.721329 63.81454 819.27844 66.164204 819.666704 68.525405 819.701032 70.903981 820.425235 73.255515 819.854543 75.65648 819.615787 78.04193 819.452666 80.42273 819.378758 82.799657 820.189552 85.160763 820.960557 87.529095 821.029672 89.909404 820.303312 92.292765 819.665451 94.669637 820.661493 97.050027 819.745242 99.42 820.213597 101.802244 820.885083 104.192958 820.267672 106.559428 820.456025 108.943674 819.314409 111.286195 819.847707 113.682091 820.572812 116.091919 819.499075 118.424621 820.656255 120.864012 819.097553 123.16167 818.984767 125.534545 818.913069 127.910422 819.753086 130.35186 818.644863 132.656099 818.101244 134.996837 819.310938 137.48422 817.9496 139.752558 819.313716 142.269813 819.145108 144.648786 817.645358 146.888033 818.002555 149.319849 818.088867 151.726542 817.797247 154.091261 816.892553 156.378844 815.509951 158.597697 816.54028 161.133353 816.430294 163.522038 815.519792 165.795941 814.184392 167.999584 815.219985 170.564355 814.194787 172.810172 812.945005 175.011612 813.581288 177.529216 812.906341 179.82471 813.628856 182.373343 812.235459 184.535426 810.786168 186.676381 810.409543 189.020324 809.882384 191.334354 809.406872 193.658651 809.240346 196.049718 808.718006 198.365714 809.727877 201.029091 808.419973 203.170964 807.161224 205.31594 807.989765 207.961361 806.913287 210.147702 806.904589 212.600528 805.469699 214.68833 803.913346 216.734268 804.951569 219.475125 802.716285 221.325468 803.244414 223.940899 802.965738 226.336517 800.995447 228.23725 801.533715 230.87801 800.589713 233.078207 798.658217 234.966608 799.374632 237.684598 798.960456 240.052601 796.932743 241.890902 797.710876 244.658567 795.586261 246.449985 796.019465 249.117145 793.500026 250.751448 793.106437 253.132062 791.879002 255.211723 793.020105 258.170297 790.361661 259.711916 789.3474 261.863981 789.99886 264.666728 788.278244 266.544547 786.743556 268.487182 786.399996 270.910866 785.715182 273.199529 784.88883 275.431395 783.462608 277.407091 782.182448 279.44042 781.115074 281.562458 780.744733 283.996352 779.231186 285.918223 779.09356 288.468814 777.425063 290.312963 776.707952 292.601236 776.473639 295.125282 775.907128 297.370364 773.988577 299.26918 775.472583 301.787105 774.271894 303.94999 773.596284 306.181827 773.014425 308.430569 772.846349 310.729209 774.213678 313.195924 772.359621 315.311104 773.43268 317.745589 771.972698 319.911648 773.163014 322.357295 772.016826 324.551925 771.533179 326.812541 771.520472 329.120294 769.720698 330.86355 767.297024 331.504238 764.818081 331.082901 762.396077 330.847003 759.938505 331.0369 757.413626 330.459909 756.088838 332.589698 755.297616 334.883052 753.44147 336.526824 752.542854 338.75759 752.218074 341.351341 750.718134 343.213619 748.615635 344.689519 747.91349 347.055891 746.600414 349.032816 745.651899 351.247819 744.36599 353.243786 743.246617 355.350747 741.399915 356.972126 740.447697 359.192544 739.222009 361.230747 736.313849 362.113209 735.63849 364.526073 733.554157 365.961651 732.085898 367.823164 730.712932 369.751229 730.150816 372.260125 728.08654 373.693801 726.652693 375.578541 726.740385 378.579096 725.250525 380.430458 722.708318 381.496659 721.090454 383.244023 719.670034 385.138585 718.407337 387.153591 716.831756 388.930167 716.182771 391.422916 714.503267 393.120883 713.057339 394.99994 710.818479 396.250991 709.811207 398.476088 708.380124 400.365978 707.566381 402.75674 705.307714 403.976248 704.955142 406.753983 702.808217 408.05936 700.950217 409.598154 699.151479 411.182656 698.413626 413.661967 696.965332 415.545217 694.879541 416.882084 693.149457 418.520002 692.585249 421.171436 689.648051 421.753128 689.348667 424.648618 686.761382 425.523608 685.734876 427.784681 684.002034 429.415345 682.168001 430.952267 680.256109 432.414939 678.989547 434.468346 677.301445 436.134986 675.721472 437.901713 674.723555 440.216533 673.384536 442.216394 671.119633 443.337061 668.898466 444.491573 667.145498 446.091181 665.917879 448.200779 663.806522 449.449981 663.169183 452.147485 661.176691 453.512662 659.888095 455.577443 658.39334 457.439928 655.928878 458.322228 654.66118 460.415013 652.161461 461.248253 650.757507 463.203306 649.202477 465.005281 647.413418 466.564231 646.746369 469.305557 644.465463 470.348245 642.741392 471.978291 640.073738 472.5934 638.849229 474.758066 637.1722 476.436869 636.130077 478.813308 633.394827 479.33011 631.700771 480.990223 630.613681 483.33051 628.278957 484.275574 626.667788 486.032717 625.200868 487.956943 622.630451 488.61844 620.851425 490.183111 619.278663 491.98798 617.886949 494.008289 616.327615 495.837426 614.755727 497.655423 612.420686 498.565614 610.90918 500.457912 609.388138 502.343266 606.331979 502.865059 607.12977 505.414724 608.159168 507.593275 607.677231 510.102322 609.381863 512.21318 610.298764 514.527848 609.056126 517.010346 609.399647 519.363778 608.700711 521.693344 610.138353 524.201668 608.634952 526.402213 607.77948 528.618852 608.011008 531.125807 606.348934 533.039883 606.167514 535.519299 605.507975 537.882241 603.898808 539.710468 602.065599 541.291427 600.666606 543.205135 599.515348 545.522213 596.831725 545.941731 594.850253 547.181226 592.54391 547.741967 590.541268 549.083924 588.097349 549.19331 585.892757 549.98455 583.753604 551.416964 581.424315 552.414114 578.952391 550.990937 576.589407 551.210164 574.303933 550.503103 571.73889 551.296791 569.285156 551.019942 567.125291 549.812409 565.306196 548.033762 563.428678 546.594101 561.14535 545.792469 558.874819 544.809044 557.864143 542.39286 556.28725 540.674685 554.111541 539.38027 553.209874 537.116199 550.969813 535.61067 550.070663 533.324062 550.439013 530.636211 548.227259 528.74839 548.652552 526.176074 549.149566 523.693337 548.870541 521.353395 548.041817 518.984161 547.189949 516.477945 547.589509 514.015986 548.534789 511.691461 550.674488 509.8851 550.601442 507.243944 552.909329 505.826747 552.876852 502.88135 554.520156 501.041009 556.571526 499.641864 558.320999 497.952099 560.770943 497.240896 562.964489 496.294569 564.664101 494.450007 566.548812 492.782835 569.245193 493.000591 571.502065 492.261137 573.887611 491.95508 575.715413 489.535342 578.08373 488.988554 580.753936 490.099965 583.509213 489.584887 583.363412 486.4328 584.877788 484.493374 585.768814 482.276855 585.827085 479.701446 587.425057 477.791683 589.212038 475.955922 589.19753 473.358929 590.542442 471.332948 590.47759 468.725435 593.145334 467.234705 593.749398 464.907077 595.008568 462.841927 594.431751 460.050932 596.877 458.44848 596.935476 455.912901 597.886822 453.724142 599.429035 451.757585 598.714562 448.941444 599.655005 446.749503 601.878799 445.02663 600.949143 442.149498 602.90662 440.321267 602.457415 437.629551 605.088494 436.029322 605.004988 433.471376 605.501594 431.119202 606.815082 429.046922 607.532293 426.769697 608.825709 424.684525 609.205772 422.294375 610.520364 420.211183 609.662444 417.423747 611.494304 415.504484 611.788498 413.092797 612.81068 410.91065 612.254173 408.240337 614.799812 406.522297 615.084217 404.111306 616.2371 401.960901 615.474676 399.245317 617.430947 397.327348 617.824565 394.953007 617.252558 392.307835 618.129581 390.075276 619.888673 388.083489 620.539873 385.78271 619.648658 383.06875 621.375484 381.056985 622.111098 378.77886 622.638113 376.446127 622.036969 373.828536 622.756405 371.548726 624.744214 369.578992 625.051052 367.192394 624.317165 364.560179 626.535661 362.628471 626.68377 360.207414 627.001906 357.827746 628.021483 355.605634 627.795382 353.107387 627.804832 350.665398 628.239207 348.316747 630.031517 346.249123 629.146711 343.628539 629.483285 341.261424 629.621776 338.856811 630.172813 336.533355 632.12243 334.469658 630.85074 331.806555 632.497469 329.676909 632.698571 327.285676 633.665244 325.025846 633.108821 322.509506 634.003704 320.234662 633.392707 317.719685 635.553328 315.634605 634.473519 313.055331 636.518975 310.935849 636.241359 308.479113 635.722283 305.995532 636.973185 303.748386 637.41381 301.391452 636.214054 298.836615 637.95528 296.634098 636.451437 294.060028 637.277358 291.748351 638.847428 289.505599 637.627416 286.98387 639.405978 284.747036 639.392279 282.341872 639.484981 279.947411 638.047732 277.440038 639.920551 275.178697 638.557219 272.692842 639.875917 270.379711 639.314275 267.954597 640.686407 265.628122 638.994764 263.160904 640.396567 260.824134 640.899233 258.445411 640.061583 256.029944 639.103662 253.623214 641.039253 251.261774 640.037337 248.861626 640.220222 246.472902 640.692488 244.079668 640.771673 241.685692 640.450047 239.298626 640.717744 236.898972 640.559184 234.509513 639.408755 232.162345 639.835422 229.753447 639.021836 227.406184 639.743218 224.971791 640.509929 222.521094 639.910544 220.160777 638.22454 217.9007 639.445439 215.390576 639.230357 213.004309 638.469615 210.678059 638.528111 208.262948 638.747698 205.821718 636.354799 203.727461 638.201011 201.054934 637.491507 198.737253 636.862612 196.412872 635.392465 194.238816 636.320741 191.647204 635.790712 189.30972 634.750365 187.076993 634.906911 184.598632 634.115498 182.319166 633.058803 180.108263 632.172897 177.867244 631.385692 175.608629 630.593629 173.356443 630.757947 170.839875 630.66296 168.37824 628.572108 166.512909 627.929815 164.223395 628.979468 161.369686 627.521547 159.334961 626.692772 157.093078 626.385193 154.559337 624.684438 152.768725 623.06614 151.02715 621.594146 149.189754 620.025776 147.435534 618.546689 145.578939 615.524905 145.440763 614.271803 143.351537 612.912955 141.343791 610.733585 140.320357 609.452465 138.186817 607.375068 137.047668 605.612891 135.510915 604.189707 133.555604 602.098847 132.441938 599.814925 131.537315 597.575599 130.521878 596.407726 128.064064 598.938947 127.280556 599.692452 124.60264 601.138816 122.695745 603.096293 121.357128 605.761905 120.816389 606.878824 118.533437 608.917791 117.277141 611.287424 116.034209 609.840078 113.287546 607.642237 111.867148 606.54848 109.73023 605.226052 107.738446 604.07142 105.632844 602.688621 103.682183 601.412481 101.657753 600.413249 99.434352 598.437021 97.910698 597.38268 95.722174 595.880336 93.860562 595.060026 91.482997 593.575254 89.603138 591.881398 87.887952 589.180296 86.981721 588.826051 84.204787 587.27222 82.385796 585.908365 80.408998 584.180443 78.737904 582.579869 76.961524 579.850661 76.18135 579.357523 73.430014 577.05526 72.295103 576.442093 69.614298 574.176669 68.460072 573.340984 65.957908 570.303961 65.575059 569.857877 62.665281 568.359208 60.774293 566.596238 59.151198 563.812946 58.587102 562.253305 56.227428 562.455036 58.979159 562.005044 61.404381 561.922469 63.80183 562.406471 66.165023 563.532475 68.497511 563.532309 70.892821 562.311687 73.340289 564.35887 75.647946 564.545268 78.037547 563.566949 80.463192 562.914257 82.870937 564.512507 85.224654 563.38445 87.637478 564.426388 90.013698 563.707807 92.41203 564.405559 94.799791 564.952778 97.193669 564.052544 99.582868 563.926265 101.972608 562.929703 104.347173 563.284146 106.741032 563.611126 109.138017 563.308491 111.51935 562.87751 113.893842 564.187467 116.33544 563.657245 118.707217 562.999592 121.068394 562.1546 123.413844 562.455699 125.821282 562.715536 128.231675 561.677326 130.554783 562.057943 132.976013 561.980776 135.365957 561.991471 137.764491 561.58533 140.127291 560.93072 142.464203 561.832995 144.954019 560.835828 147.253694 562.074261 149.794863 561.060894 152.088758 560.653799 154.448843 560.158114 156.796344 559.84158 159.165489 559.460858 161.525692 558.61264 163.818258 558.444557 166.206428 558.085456 168.567082 557.036703 170.817738 557.564297 173.321015 557.500809 175.733516 556.727315 178.024825 556.794035 180.464508 556.739462 182.886926 555.950247 185.172257 555.09958 187.441673 554.399297 189.737371 553.524052 191.993985 554.240396 194.587835 552.59851 196.675994 551.874973 198.958872 553.110146 201.692911 551.477464 203.766939 551.786351 206.300137 550.931674 208.554133 550.236977 210.84564 548.833352 212.951715 547.603298 215.094059 548.089415 217.694997 546.421511 219.71186 546.642928 222.251267 546.525598 224.702981 545.407469 226.866397 543.777225 228.87099 543.29333 231.215455 542.569929 233.487784 541.661436 235.701233 541.541133 238.167527 540.465583 240.326502 539.525293 242.527042 539.736793 245.118307 537.960267 247.03158 538.836661 249.86909 537.968445 252.100671 535.477078 253.73996 534.723043 256.00157 535.554051 258.860768 535.025561 261.220349 533.817117 263.320133 531.806104 265.099895 531.057743 267.371489 531.136552 269.980719 530.223578 272.193406 529.397516 274.442638 528.48966 276.656679 526.954295 278.602174 526.217603 280.889188 524.761228 282.861783 523.313818 284.831088 522.23776 286.964876 521.620732 289.307826 520.188684 291.280585 520.825252 294.150026 519.073881 296.06505 518.891984 298.500263 519.034321 300.961687 517.759514 303.149353 516.385368 305.388493 516.70132 307.859653 517.142621 310.313019 516.822124 312.692551 515.583122 315.022527 515.244395 317.411632 516.193333 319.870469 516.318209 322.286551 514.864819 324.551617 514.870656 326.931956 514.379137 329.203986 513.153406 331.035297 512.570268 333.678316 510.23796 332.332332 507.322707 333.70061 504.805361 333.282734 502.79686 330.56563 500.052254 330.893502 498.919113 333.199752 497.883826 335.359884 496.866687 337.533098 495.544146 339.525793 494.885286 341.919849 492.329978 343.1583 491.390384 345.381186 490.374598 347.560597 488.133297 348.966692 488.199666 351.837922 486.522747 353.598999 485.72754 355.931623 483.393898 357.254538 482.760753 359.69887 480.286291 360.911048 479.292554 363.116229 477.861107 365.025073 476.388303 366.904118 476.491668 369.886761 474.644972 371.508814 473.321268 373.498275 472.254592 375.67394 469.469933 376.603514 468.096943 378.551601 467.036977 380.732225 465.68718 382.700901 464.627407 384.88944 463.870906 387.313788 461.184078 388.265357 460.860147 391.030185 458.186208 391.974958 456.648694 393.798742 455.37256 395.829266 454.752836 398.388003 453.231986 400.230863 451.35365 401.782584 450.300052 404.005824 447.844539 405.076233 445.88668 406.549108 444.398587 408.41081 444.02569 411.216542 441.832017 412.485308 440.570519 414.546345 438.486388 415.899414 437.244907 417.980246 435.046315 419.22498 433.742525 421.253047 432.467603 423.310197 431.345612 425.508475 429.392483 426.962048 427.141519 428.140352 425.572628 429.935173 425.290968 432.917244 422.52057 433.606152 421.204769 435.639873 419.890712 437.679125 417.610343 438.807669 416.05803 440.622005 414.754544 442.676079 413.806489 445.077331 411.906691 446.563154 410.641433 448.665991 408.068681 449.488553 406.194829 450.991479 404.504084 452.674243 403.404758 454.948766 401.178097 456.095477 400.061822 458.36014 398.705564 460.387232 396.610773 461.662262 394.88215 463.309912 393.033006 464.832555 391.746909 466.940002 388.805338 467.319051 388.115154 470.054343 385.720164 470.997104 384.814657 473.517145 383.151883 475.236555 380.424173 475.811963 378.91435 477.692498 377.41913 479.591509 375.376842 480.896211 373.147577 481.993449 371.665902 483.909571 370.359995 486.023296 368.960994 488.038208 367.196862 489.648647 364.527139 490.241751 362.892708 491.993801 360.745436 493.16688 359.220406 495.044421 357.815505 497.061598 355.256669 497.756426 354.546496 500.577366 351.728332 500.964912 351.195141 503.441486 350.883271 505.579832 351.863487 507.780999 352.943689 510.007041 352.863384 512.426437 352.225138 514.86044 352.648109 517.189161 352.763683 519.544131 353.190762 521.930666 353.207354 524.330613 351.993174 526.558153 351.94181 528.95487 350.00971 530.854602 350.16239 533.346776 348.569814 535.189616 348.227873 537.614766 347.676513 540.078176 345.173745 541.143063 344.758622 543.973834 342.441474 545.004128 340.603495 546.515783 338.480399 547.593398 336.470423 548.903334 334.425264 550.433219 331.915719 550.713484 329.24721 550.054689 327.075895 551.49026 324.545123 550.522533 322.202063 550.694732 319.846023 550.772397 317.404104 551.264643 315.149359 550.29267 312.55549 550.715002 310.557462 549.101317 308.440864 548.020062 306.41756 546.797271 303.602482 546.699464 301.985095 544.779915 300.348837 542.980033 298.823061 541.113271 297.772404 538.913913 294.902287 537.900314 295.191356 534.956807 293.212053 533.202536 292.439477 530.872314 292.644596 528.310942 292.478656 525.927513 291.253995 523.6884 292.263462 521.237761 290.898469 518.857154 292.078072 516.55571 292.542329 514.258128 291.388487 511.459395 292.430402 509.184074 294.567085 507.505786 294.78807 504.824536 296.636304 503.132102 297.928571 501.022638 300.007784 499.65722 301.588196 497.764733 304.511605 497.703189 306.133645 495.87533 307.590045 493.543356 310.321662 493.616054 312.140707 491.76007 314.678274 491.656458 317.099265 491.389361 319.084829 489.602896 321.571605 489.636284 323.977963 489.451784 326.895248 489.429846 327.040891 486.318403 328.646823 484.422143 329.648402 482.253641 330.542886 480.038166 331.07892 477.668978 332.922887 475.860475 332.220677 472.971202 334.326644 471.266804 333.951894 468.529073 335.934063 466.764011 336.145436 464.274846 337.448824 462.227622 338.332734 460.017435 339.153268 457.782081 339.192342 455.244349 341.971761 453.762534 342.782172 451.518717 343.057914 449.074393 344.188191 446.951399 343.318836 444.09142 345.193912 442.241613 346.323206 440.115241 347.568011 438.027277 347.321537 435.410799 348.257364 433.213643 348.330443 430.717921 350.914828 429.083012 350.880459 426.551741 352.018152 424.416902 352.10993 421.934226 352.880319 419.677423 354.2272 417.606051 353.382919 414.83168 355.025377 412.852055 355.67302 410.555722 356.036844 408.172328 357.05084 405.988988 358.2841 403.869071 357.928115 401.273228 359.656164 399.295905 360.307931 396.999069 361.425537 394.835409 362.179479 392.565594 362.257738 390.106592 362.934232 387.81611 362.182648 385.137687 364.134925 383.193038 364.179546 380.734852 364.758201 378.419749 366.434365 376.386343 365.185398 373.605103 365.906133 371.328201 367.927535 369.369335 368.250523 366.989085 368.737418 364.649538 368.450616 362.129334 369.699941 359.969068 369.704884 357.521559 371.411966 355.456795 370.287412 352.763638 371.853157 350.66089 372.291771 348.312143 372.617338 345.94039 372.541295 343.48838 372.834843 341.114248 374.801351 339.067404 374.676585 336.609364 374.579758 334.161237 375.38612 331.882236 374.701105 329.334008 377.094543 327.331018 376.085391 324.733052 377.72334 322.585423 377.749976 320.167041 378.669836 317.89182 378.727526 315.480148 379.026707 313.106822 379.45882 310.752957 378.075394 308.145623 379.267182 305.900325 380.487598 303.650681 380.589456 301.252403 380.064628 298.780383 380.415709 296.41743 381.752592 294.163061 380.463559 291.619838 382.134219 289.390912 382.439561 287.016568 382.702452 284.637549 381.53564 282.135286 382.20667 279.795466 381.78044 277.367955 381.605735 274.964568 382.033197 272.603886 382.304835 270.231112 382.077669 267.830266 384.13559 265.543094 383.710478 263.12898 384.132248 260.751803 383.61477 258.342043 382.781752 255.93161 384.704462 253.582983 382.602138 251.161812 383.280031 248.784124 384.038191 246.398154 384.602093 244.003816 382.595015 241.63632 382.542913 239.256001 384.485143 236.822334 382.862889 234.481644 384.342615 232.035907 383.954731 229.657448 382.19246 227.359053 382.025999 224.98461 382.894574 222.537594 382.56596 220.16552 382.912624 217.737891 381.296695 215.486339 381.038977 213.118951 382.25949 210.588691 381.909347 208.220794 380.974973 205.929045 380.173687 203.630572 380.470818 201.180826 379.771754 198.874255 378.841429 196.612438 380.00892 193.995489 378.205597 191.895604 379.279158 189.263531 378.806041 186.91673 378.614708 184.508731 376.827824 182.453666 376.950752 179.973014 375.356141 177.905872 374.381144 175.701429 373.768805 173.407691 374.62276 170.694823 373.825715 168.434679 372.366008 166.385168 372.050347 163.985419 371.088697 161.790891 370.552038 159.455087 370.564108 156.91039 369.196787 154.857049 367.46197 153.157281 366.719451 150.773237 364.565909 149.519583 363.319456 147.476124 360.678357 146.86088 359.986182 144.168987 358.102287 142.764106 356.35492 141.204227 354.683434 139.5486 352.203603 138.918193 350.76373 136.969081 348.623441 135.917626 347.037551 134.15254 345.363981 132.511284 342.565426 132.260394 341.918834 129.386499 340.555957 128.965425 341.118046 126.524822 342.552565 124.580108 344.448065 123.142939 346.60469 121.991962 349.107623 121.230895 349.632054 118.262808 352.658989 118.070054 352.929844 115.251474 351.680678 114.266156 352.144436 111.13602 349.19157 110.220177 348.402837 107.887893 347.089399 105.9015 345.365432 104.197574 344.920721 101.611149 343.708432 99.548861 341.066211 98.512432 340.218063 96.193651 338.78904 94.293997 338.144088 91.801245 335.688631 90.682552 335.057004 88.161019 332.390496 87.240075 331.778201 84.683826 330.744607 82.450542 329.04723 80.762025 327.03682 79.346834 324.973532 77.991927 323.549894 76.087963 322.669993 73.687045 321.367139 71.650904 319.726909 69.918687 317.042963 69.1774 315.85902 67.021811 313.607469 65.899007 312.873426 63.283448 311.582882 61.19743 308.614461 60.824678 308.110955 57.917431 306.082797 57.585975 306.266081 59.259831 305.97912 61.655893 305.893712 64.037495 307.3311 66.341154 307.04896 68.734557 305.960433 71.158206 306.598723 73.507249 307.295406 75.858982 305.778818 78.27979 306.488602 80.632311 306.679743 83.00089 306.527821 85.376106 307.718297 87.734235 306.01895 90.12296 307.581763 92.487901 306.817851 94.862396 306.873964 97.235243 307.062614 99.61013 306.54522 101.976091 307.993591 104.376769 307.592316 106.745824 305.90958 109.074447 307.612257 111.502265 306.897965 113.853892 306.224012 116.201425 306.218984 118.575506 307.069621 120.99548 305.790316 123.302812 305.737415 125.675258 305.378792 128.0288 306.536227 130.488906 306.615334 132.879341 304.597564 135.101724 304.8667 137.503391 304.570907 139.858144 304.743117 142.257003 303.547933 144.521602 304.772122 147.033114 304.230805 149.363301 303.53313 151.672496 303.104356 154.009933 302.243499 156.29135 303.274678 158.815342 302.673543 161.130365 301.687919 163.388067 301.137537 165.702844 302.111004 168.24686 301.888598 170.61684 300.858184 172.857206 301.090393 175.302268 300.699908 177.64629 299.89317 179.916333 298.474988 182.070114 298.010815 184.393366 299.325024 187.061401 298.683633 189.35842 296.314242 191.299704 297.494391 193.966569 296.895544 196.267963 295.510769 198.394594 296.317542 201.008054 295.337967 203.221746 294.856021 205.548755 294.670171 207.94845 292.135676 209.768763 293.292586 212.504987 291.615846 214.525075 290.69023 216.7323 291.807588 219.488021 290.961414 221.720686 288.740556 223.563445 289.955173 226.376423 288.150502 228.32529 286.53399 230.317601 287.273142 233.016756 285.535052 234.96372 284.918888 237.253428 284.507317 239.610151 284.53539 242.114505 282.232941 243.851381 282.455781 246.426285 281.934919 248.756314 280.241376 250.678413 280.663591 253.343797 278.345312 255.031269 279.153284 257.851291 278.107085 259.995677 275.972579 261.724824 275.92188 264.242168 275.634641 266.67667 275.102741 269.021106 272.685603 270.610245 271.872503 272.83748 270.981632 275.033766 271.508435 277.826883 270.347603 279.915429 269.330178 282.06408 268.312311 284.212433 266.007539 285.788988 266.772891 288.730365 264.653948 290.378496 264.081901 292.727413 262.422379 294.577053 262.944619 297.278257 260.458241 299.005668 260.184945 301.385945 261.261277 303.951323 260.479133 306.185448 259.78125 308.45327 260.492211 310.876342 258.726679 313.057262 260.132305 315.530133 258.52985 317.743788 258.201085 320.063595 259.101188 322.493898 257.950146 324.733245 259.19753 327.230673 257.909279 329.422101 257.91915 332.765273 255.368235 332.554908 253.016085 331.415244 250.781008 331.429479 248.722051 333.146004 246.478611 333.088013 244.333845 334.016865 242.291658 334.096878 241.751156 335.922619 238.87882 336.986 238.699286 339.648093 237.456902 341.677301 235.625812 343.344168 234.880708 345.678699 233.293125 347.490389 232.887052 350.048451 231.07187 351.713415 230.297759 354.046617 228.179288 355.505738 226.157997 357.018349 225.611788 359.507785 223.438792 360.909056 223.369207 363.73337 222.224527 365.834318 221.189468 368.014131 219.30549 369.602542 217.751404 371.417749 216.297751 373.302371 215.195952 375.439864 212.721688 376.582118 212.634227 379.463281 209.787438 380.317086 209.226244 382.860703 207.108988 384.242267 206.512279 386.771308 204.759402 388.424511 204.090755 390.912376 202.0721 392.357489 200.208287 393.917183 198.5979 395.672727 197.456159 397.801131 195.41314 399.20781 193.8786 401.020356 192.425707 402.899282 191.118167 404.898789 189.765886 406.863731 189.346664 409.612276 186.794078 410.574585 185.919066 412.950249 183.84671 414.3088 181.821965 415.701816 180.634348 417.816413 179.167302 419.691094 178.375602 422.16235 176.243962 423.453975 173.671023 424.344233 172.139899 426.160053 171.308504 428.610812 169.501657 430.180942 168.327672 432.329929 167.250883 434.574126 164.740862 435.490784 162.810667 436.939853 161.804299 439.256384 160.081911 440.900959 158.961274 443.1192 156.163309 443.731687 154.668577 445.590671 152.757822 447.046747 152.458561 450.077409 149.424142 450.430411 147.881425 452.245229 146.526615 454.248862 145.059135 456.143322 143.042255 457.486281 141.489354 459.295953 140.679409 461.865036 137.708419 462.227617 135.915363 463.791608 135.287799 466.56345 133.650449 468.294443 131.541255 469.531447 129.777425 471.128057 127.877446 472.579821 126.371448 474.44935 124.819516 476.272102 123.381846 478.219808 120.769039 478.899049 119.558412 481.093695 117.796913 482.691931 115.287514 483.468303 114.739874 486.403797 111.664074 486.54733 109.952537 488.197197 109.217817 490.941386 106.924378 491.942044 105.876333 494.344889 102.846481 494.503888 100.923893 495.914846 100.079342 498.55902 97.694793 499.438681 96.439939 501.619797 93.945423 502.363677 92.932061 504.52006 93.28564 506.668494 93.973985 508.894474 94.301077 511.21054 94.940769 513.447065 96.105128 515.633879 94.771387 518.11461 95.294453 520.378616 94.873435 522.661707 95.748963 525.0252 95.816054 527.399475 95.488188 529.744824 93.790721 531.692648 94.266083 534.347432 93.23152 536.503143 92.15305 538.644223 91.077667 540.835688 89.487383 542.675698 86.665354 543.197505 85.422812 545.315025 82.795534 545.562564 80.943517 546.853103 79.165585 548.456908 77.339131 550.314568 74.744791 549.866029 72.50702 550.49606 70.316181 551.571064 67.91735 551.264343 65.600318 551.960245 63.25297 551.508558 60.881076 551.615917 58.818376 549.876649 56.63103 549.313357 54.489014 548.609863 51.809153 549.057416 50.245488 547.010156 47.364792 547.221297 46.548786 544.379902 44.838295 542.896758 42.984751 541.5202 41.22749 539.97557 40.415023 537.736958 38.206723 536.337674 36.974108 534.293821 36.520279 531.925178 36.455228 529.50491 35.131176 527.423159 36.132359 524.904006 34.940754 522.658782 34.603783 520.2755 34.467715 517.859232 36.029203 515.648688 34.664135 512.949539 35.183496 510.517271 37.475697 508.81657 39.10887 507.045021 40.026053 504.898212 41.606097 503.191315 41.940442 500.276411 44.322423 499.287849 46.668465 498.451223 48.603482 497.16144 49.555333 494.134182 52.154501 493.854607 53.929299 491.948169 56.829226 492.674417 58.815946 491.196647 60.886455 489.789406 63.340574 489.615473 65.588292 488.698695 68.030286 488.620262 70.24035 488.04166 71.121672 485.959554 71.323922 483.457783 73.663045 481.857833 73.411948 479.170581 75.581197 477.48883 76.21463 475.17094 76.147425 472.57178 77.633767 470.608861 78.592703 468.431854 78.752243 465.939481 79.303219 463.604508 80.189935 461.40115 81.880863 459.505078 81.958358 456.990995 82.784143 454.76315 85.250288 453.145699 86.265281 450.981531 85.48006 448.158192 87.442908 446.340086 86.88499 443.610316 89.120041 441.881192 90.060202 439.686751 90.057967 437.162946 90.219753 434.700842 92.12827 432.839067 92.455903 430.435016 92.909811 428.075991 95.108836 426.296895 94.42943 423.564101 95.853574 421.523311 96.458505 419.214662 96.08514 416.595906 98.029419 414.712853 98.296981 412.300022 99.29175 410.113651 99.283604 407.62018 100.445122 405.48304 101.301634 403.251867 101.174793 400.730457 101.894295 398.460166 103.898476 396.557942 103.160916 393.86923 103.796849 391.574552 104.900673 389.409172 105.081454 386.988497 106.606365 384.932992 106.907629 382.545687 106.873469 380.07253 107.933554 377.886972 109.242813 375.761596 109.478642 373.360966 109.106218 370.811996 110.2241 368.633849 110.984149 366.365522 111.571324 364.054701 111.765235 361.651867 113.112733 359.5162 113.325231 357.118284 113.562223 354.728118 114.231076 352.434186 115.124727 350.187118 114.30975 347.577716 114.796406 345.247063 116.63283 343.189557 116.036604 340.638536 117.526585 338.501556 117.114696 335.994044 118.383705 333.80654 118.100613 331.329353 119.657187 329.185464 119.990652 326.819346 119.405994 324.298034 119.479661 321.893866 121.307447 319.774823 121.479436 317.383717 122.085437 315.060347 122.484069 312.704054 121.165602 310.101101 122.804737 307.923638 121.910397 305.39412 122.800329 303.106997 122.948319 300.721761 124.286234 298.480888 124.803347 296.135238 124.584531 293.705863 123.686033 291.209398 123.578262 288.803895 125.72535 286.617447 125.195906 284.169342 124.176627 281.687097 126.291427 279.468658 126.70294 277.102551 125.719495 274.637071 125.655052 272.242861 126.399764 269.898411 126.500541 267.513218 126.537512 265.125334 126.749558 262.745621 126.868621 260.361327 126.790061 257.970805 126.261205 255.571451 127.146418 253.204199 126.543956 250.809645 127.054484 248.428764 125.686414 246.043992 127.530332 243.652122 125.879334 241.286014 126.373554 238.896458 126.025763 236.523131 127.667334 234.084658 126.770196 231.728237 126.707384 229.342343 125.265721 227.033333 125.663996 224.626443 125.284875 222.266685 126.631653 219.771562 126.639558 217.368953 124.784466 215.139671 124.205303 212.805708 124.866744 210.339681 124.886538 207.935231 123.883121 205.657121 123.708561 203.277911 124.762405 200.716932 122.4248 198.657122 122.570461 196.225538 121.632083 193.97296 121.002611 191.674221 120.900778 189.277304 121.627343 186.704362 119.763075 184.660015 120.028543 182.166027 120.111981 179.698673 118.443387 177.650659 118.264788 175.243081 117.617877 172.952907 116.980502 170.660465 115.870349 168.505567 115.006806 166.287294 115.956115 163.495511 113.63855 161.744783 113.268779 159.3645 113.748572 156.667619 112.714696 154.313954 111.314522 152.2223 109.909615 150.157868 107.824415 148.719393 105.503828 147.60311 103.950107 145.738906 102.284094 143.972587 100.278874 142.591838 98.101826 141.428278 97.072703 138.843664 94.152562 138.625451 93.449001 135.59414 90.315374 135.65511 88.444038 134.102628 87.203677 131.775154 84.781456 130.878154 83.443931 128.611059 85.851402 127.3497 86.731877 124.831532 88.096446 122.719596 90.191883 121.223902 92.35858 119.793315 92.830274 116.917356 94.091841 114.706097 96.461841 113.428372 94.305065 111.982069 93.074908 109.906046 93.072657 106.948751 90.765251 105.636911 89.770866 103.379608 87.223001 102.258251 86.092108 100.100298 85.940947 97.203095 83.394128 96.10058 81.708271 94.356074 81.456105 91.505887 79.706441 89.806479 78.136551 87.969436 77.018366 85.771963 75.407385 83.96662 73.65646 82.278054 72.204868 80.344268 69.899374 79.128857 67.943262 77.627922 67.551542 74.777792 64.84346 73.943851 63.660548 71.773528 62.200339 69.845698 60.161782 68.450401 59.104428 66.137321 56.472722 65.324352 55.971683 62.447643 54.221721 60.780621 52.48238 59.107253 50.48415 57.375126 47.943241 58.019745 45.816852 59.192416 43.427244 59.5122 41.188739 60.37351 38.903382 61.123601 36.57836 61.813075 34.187172 62.191047 31.772388 62.664098 29.341977 62.247248 26.914218 62.114779 24.60071 61.280975 22.085426 61.334395 20.246643 59.291842 18.074992 58.406203 15.758651 57.705834 13.175779 57.208797 11.429995 55.454823 9.950625 53.476641 9.197161 50.911815 6.894093 49.768234 6.30058 47.316973 5.329089 45.208582 2.858617 43.73007 1.823867 41.501683 2.478148 38.821836 .749832 36.720027 1.550928 34.194955 1.239385 31.83425 0 29.375798 .962459 27.008783 2.58561 24.878145 1.273393 22.068361 3.609452 20.302673 4.331382 18.045858 5.19637 15.815593 6.325101 13.697874 8.570669 12.404121 9.935795 10.477728 11.241207 8.358755 12.774736 6.309461 15.505579 6.099837 16.944807 3.528746 19.333041 2.758699 21.864223 2.560464 24.446701 2.932017 26.850777 2.888146 29.177777 2.406168 31.511587 1.36113 33.940894 .640437 36.403329 .614544 38.783845 1.530521 41.263868 1.351498 43.463958 2.871686 45.950375 2.659434 48.025253 3.901179 49.639336 5.714826 51.9304 6.474519 53.311791 8.366826 55.454132 9.728986 55.442232 12.443931 57.547327 14.06168 58.744763 16.177387 58.700799 18.715127 59.134652 21.072443 60.801566 23.062119 61.019775 25.490543 61.705754 27.781409 63.229506 29.741493 64.580288 31.691353 65.254037 33.963753 66.748841 35.749654 67.045794 38.526045 69.532459 39.641387 69.659341 42.570332 71.383442 44.268703 73.097531 45.971165 75.793793 46.889272 76.77745 49.165719 78.603995 50.768711 79.172302 53.387497 80.704603 55.22967 82.431599 56.912954 84.469521 58.341535 85.051223 60.960161 86.64232 62.753716 89.295767 63.678066 89.845192 66.323452 91.072915 68.413088 92.798966 70.096375 93.732013 72.42266 96.07687 73.606723 98.271135 74.918464 98.935665 77.455062 101.020136 78.860453 102.528136 80.725239 104.140479 82.509714 104.834816 85.002143 106.555387 86.702047 107.99176 88.620166 109.160773 90.736542 109.913066 93.152269 112.79928 94.016772 114.055382 96.070061 115.292384 98.134004 116.734161 100.054545 117.789873 102.237218 118.654971 105.087485 121.4418 104.318473 123.735039 105.679934 126.271691 105.547857 128.707696 106.038132 131.126334 106.660033 133.981329 105.986499 133.788375 109.060453 133.598559 111.381856 134.515469 113.652323 135.128893 115.945318 133.384815 118.315837 133.507831 120.621628 134.731376 122.89441 134.698428 125.208884 134.693809 127.523153 134.192611 129.869528 135.083259 132.131662 134.662286 134.491865 135.908094 136.680938 136.195339 138.959689 136.344632 141.256203 135.844605 143.731095 137.506891 145.79146 137.356755 148.285559 137.897878 150.614668 139.078349 152.799559 138.061062 155.475848 138.753601 157.768075 139.277752 160.097521 140.876947 162.204121 141.670407 164.484264 142.345946 166.790655 141.482762 169.396406 141.610419 171.802679 142.786136 174.013288 142.554979 176.482522 143.633471 178.72448 144.456528 181.015925 143.736854 183.563915 145.799772 185.659057 144.913176 188.2238 145.152529 190.608412 147.145788 192.740885 147.069057 195.175495 147.076174 197.594481 147.232886 199.990944 147.567556 202.363987 147.886279 204.739142 147.738754 207.16599 148.525611 209.490127 148.998506 211.851192 148.775032 214.279822 149.261741 216.640811 149.991879 218.98479 149.057518 221.461703 150.062036 223.788829 149.048702 226.25593 150.309485 228.575499 149.765884 231.003469 149.431063 233.413525 149.567091 235.798769 150.80056 238.145827 151.207152 240.530488 150.328865 242.948648 149.283008 245.358273 149.501894 247.740736 150.184904 250.123072 149.286644 252.511633 150.72245 254.90592 151.386471 257.307475 149.357334 259.665435 149.96016 262.065917 151.210117 264.494664 150.971362 266.883622 149.630053 269.222796 149.459405 271.604859 150.359164 274.045523 150.358074 276.443139 149.209152 278.765132 149.316123 281.167313 148.794925 283.523066 148.669592 285.908503 149.108041 288.345961 147.869832 290.629117 147.456641 292.986109 147.9252 295.436122 148.03687 297.853601 148.407851 300.306019 146.715596 302.508331 147.347913 304.997538 146.678816 307.320467 146.693784 309.735819 145.668035 312.002698 146.377949 314.524863 144.316235 316.624504 145.525481 319.23484 145.279414 321.618843 144.113056 323.84655 143.255185 326.121115 142.169585 328.350271 142.370283 330.811782 141.939824 333.159254 141.904577 335.583716 140.611217 337.761794 140.341827 340.140719 139.439421 342.390266 140.770595 345.108512 139.209462 347.218665 139.249739 349.671608 139.159069 352.099615 137.832792 354.250666 136.579542 356.412773 137.798633 359.144437 137.140661 361.442939 135.206241 363.433691 135.148738 365.873226 134.225549 368.102407 134.492284 370.627021 133.733606 372.897555 132.145253 374.955188 131.876979 377.348639 131.551357 379.729156 130.800071 381.999204 130.427833 384.369628 130.203492 386.78115 128.943143 388.914501 128.670991 391.31479 128.161994 393.65181 126.676837 395.719583 125.710478 397.928971 126.996356 400.768808 126.203792 403.029545 125.458158 405.296919 123.28797 407.158684 124.393136 409.95522 123.276413 412.117897 121.752421 414.162474 121.25893 416.504953 120.106671 418.65678 120.181133 421.167157 118.561757 423.183054 118.021351 425.515575 118.839311 428.249896 116.369608 430.01518 116.597327 432.57823 115.293587 434.682046 114.787505 437.024546 115.647252 439.776114 114.506116 441.934187 113.565316 444.153666 111.882067 446.152992 111.410369 448.510386 112.120817 451.225921 110.472852 453.234702 109.260739 456.496123 111.702758 454.033504 113.520698 452.506091 114.777639 450.332965 116.480718 448.680527 118.17496 447.020067 121.324878 446.986073 121.849719 444.020967 123.604446 442.428591 125.190433 440.653531 127.296672 439.439467 128.908621 437.687947 131.461962 436.927821 132.086754 434.145625 135.135476 433.880941 136.653502 432.029343 137.45914 429.46331 140.368642 429.01597 141.901844 427.18391 143.129556 425.055959 143.907047 422.50056 145.553458 420.795806 147.479044 419.356343 149.261805 417.777283 151.646482 416.756082 152.035023 413.880292 155.192169 413.555049 156.566532 411.590057 157.852164 409.549677 159.74488 408.053208 161.178327 406.148036 161.868969 403.598844 163.993306 402.300087 165.473377 400.441908 166.998006 398.622547 167.662395 396.082345 170.190793 395.103661 171.653215 393.230169 173.53155 391.696908 173.967086 388.992351 175.589467 387.254032 177.260291 385.552415 178.424227 383.449363 179.696756 381.435378 181.174087 379.58246 184.136536 378.868328 185.369836 376.819698 186.495185 374.692459 188.23484 373.02871 188.181602 370.031016 189.751299 368.245452 192.397612 367.244139 193.097007 364.818054 193.723366 362.346913 196.010476 361.06917 197.375845 359.129047 198.334203 356.903005 199.82743 355.054484 200.566718 352.682229 203.117668 351.562504 203.741055 349.114091 206.16811 347.896558 207.420993 345.878151 207.446783 343.038399 209.528884 341.578389 210.265714 339.221922 212.524452 337.87049 213.759058 335.841993 214.822816 333.704285 215.783788 331.501241 216.292017 329.008951 219.264317 328.095792 218.952003 325.084138 220.511488 323.264457 221.625079 321.885956 220.117362 320.242287 219.23058 317.813902 218.004958 315.668904 215.915789 314.253413 213.714664 312.93751 212.84303 310.485492 211.903228 308.0862 209.464029 306.727614 212.108034 305.959841 213.010039 303.134117 215.541024 302.508078 217.027002 300.472457 219.833187 300.218577 221.766022 298.785169 222.683167 295.973525 225.106689 295.202734 227.576217 294.492187 229.430818 292.949534 230.702957 290.625396 233.323627 290.120628 234.386334 287.503093 236.270451 285.996507 238.524765 284.989836 240.358436 283.407421 242.615559 282.403178 242.722138 279.838205 244.608676 278.067961 245.557903 275.874004 246.306929 273.593335 246.650907 271.141884 248.821502 269.467719 248.42797 266.713 250.6935 265.062946 251.788975 262.924411 252.296471 260.549729 253.498951 258.451645 252.892553 255.65204 255.330218 254.0257 256.037691 251.733781 255.623051 249.030441 258.16112 247.410932 257.589529 244.663237 259.616604 242.842407 259.210801 240.168536 259.648567 237.794291 260.170639 235.45192 261.744555 233.456647 261.647579 230.914619 262.708725 228.747993 264.518374 226.809664 264.068825 224.170625 265.272027 222.03858 266.312234 219.852803 266.7724 217.496046 267.973126 215.350244 269.083955 213.173321 268.945705 210.653131 269.647118 208.363919 269.982639 205.978848 270.54118 203.653282 270.586787 201.200903 270.697077 198.770169 271.559012 196.522311 273.169571 194.443718 272.679714 191.880009 273.476363 189.610183 274.603087 187.407699 274.488284 184.93969 274.858216 182.576653 276.288902 180.423491 275.865884 177.905164 277.47499 175.773368 277.105364 173.272792 276.770111 170.787276 277.407803 168.473876 278.239302 166.18917 279.679702 163.99463 279.677866 161.570256 278.420948 158.968088 280.12011 156.795876 280.662732 154.453524 280.233527 151.984654 280.782649 149.643328 279.777096 147.119076 281.076197 144.862993 280.857366 142.436987 282.291288 140.178355 282.545101 137.796371 281.957471 135.341689 282.771262 133.008557 281.397384 130.506363 283.275218 128.243427 283.27095 125.843543 283.651355 123.466911 282.882793 121.030519 283.730024 118.674923 282.384803 116.229059 282.807584 113.855471 283.569007 111.485846 282.504139 109.074309 284.427539 106.71207 282.906393 104.307154 283.42044 101.919844 284.11316 99.524587 283.98246 97.131022 282.764591 94.761165 283.307612 92.359036 283.120596 89.973641 282.111914 87.622989 283.923689 85.151802 283.346304 82.783489 283.665959 80.366915 282.437767 78.047954 283.122489 75.601586 283.447171 73.172793 283.199311 70.787515 280.83064 68.604689 282.344638 66.054767 281.988071 63.408791 279.276481 62.781667 277.095612 61.806847 275.055362 60.601316 273.230316 59.096571 271.598797 57.362109 269.845477 55.787968 268.096928 54.206368 266.320534 52.638068 265.636519 50.095611 264.143145 48.32782 261.753569 47.166883 261.883538 44.309116 259.218889 43.100934 258.936621 40.617277 257.86878 38.489779 256.801393 36.285601 258.249344 33.69344 257.893958 31.453184 257.389072 29.130404 258.668006 27.005833 257.717934 24.401541 259.158834 22.385974 259.145334 19.835949 260.081423 17.61995 262.883239 16.524171 263.86976 14.441215 263.978862 11.527369 266.745619 10.863834 267.608108 8.345205 269.267528 6.563575 272.077355 6.48148 273.726667 4.673371 275.555705 2.988399 278.450002 3.862992 280.075552 1.350008 282.654548 1.83623 284.771516 .408037 287.323748 1.72406 289.527708 .118531 291.899667 .484282 294.203329 1.387239 296.668389 .247757 299.085238 .47212 301.065041 2.229169 302.99494 3.531658 304.996155 4.543443 307.953113 4.544826 309.083824 6.852408 311.083241 8.333171 310.949351 11.210023 312.059587 13.215173 312.827684 15.399524 314.605938 17.204794 315.428306 19.414175 315.636901 21.842715 316.69071 23.978172 318.325376 25.892459 317.890015 28.615638 319.978356 30.290971 319.901204 33.000088 321.188298 35.064531 322.710946 36.97144 324.358259 38.721029 326.277328 40.264516 327.876832 42.052283 330.062147 43.389588 329.81965 46.58746 332.593282 47.474865 333.867983 49.513393 335.428181 51.330908 337.158022 53.017874 337.553317 55.719911 339.451653 57.270316 341.421608 58.768242 342.719331 60.786024 342.825176 63.720509 345.214368 64.90038 346.101276 67.229937 347.442989 69.212345 350.260608 70.068436 351.167117 72.388694 352.854705 74.107656 353.573873 76.57092 355.277689 78.282955 357.511106 79.585738 359.004132 81.459502 358.987311 84.488771 360.755908 86.152495 361.82174 88.353005 364.120956 89.609709 365.81752 91.328306 367.312846 93.196156 368.134182 95.584615 370.493766 96.79752 371.1063 99.345113 373.493914 100.539291 374.317528 102.937042 375.781846 104.813382 378.311707 104.168261 380.878061 104.089239 383.464654 105.032668 386.014647 104.060555 388.613213 105.37331 391.308122 104.089826 391.209845 106.937915 390.820943 109.312779 390.539368 111.692171 391.319458 114.073595 390.005799 116.460652 391.914522 118.811294 390.197565 121.227296 390.921447 123.585293 392.090513 125.908173 390.412009 128.377239 390.937139 130.731329 392.259783 133.010975 392.86476 135.331438 391.274664 137.880075 392.108974 140.181825 391.990056 142.597828 392.32971 144.957752 394.131955 147.079788 394.644754 149.389804 394.643376 151.795324 395.094892 154.119651 395.922381 156.363805 396.255784 158.713904 396.135838 161.185001 397.287027 163.340697 397.621446 165.709581 398.954083 167.827607 398.447689 170.397324 399.201423 172.659151 400.204403 174.869284 399.661138 177.418188 399.717877 179.826683 400.633182 182.05866 400.882238 184.424372 401.816464 186.662525 403.250662 188.821869 401.913275 191.458296 403.664158 193.579129 403.21319 196.052607 402.928281 198.48995 403.436426 200.810558 405.562234 202.927405 404.327625 205.475614 404.944336 207.79229 406.380318 210.027634 406.244078 212.434673 406.064064 214.840277 405.209989 217.296704 405.60858 219.641943 405.727036 222.009796 406.364278 224.344392 407.350491 226.666184 407.577972 229.036903 406.723327 231.454958 406.747792 233.828756 407.340671 236.185198 406.417279 238.582733 408.278907 240.922755 407.297953 243.313718 407.997979 245.686261 407.033289 248.062569 407.611675 250.44107 407.78437 252.820748 406.797282 255.17812 408.115963 257.587413 408.027712 259.966249 406.885576 262.303551 407.03507 264.6868 407.137145 267.070598 407.082993 269.448125 406.037231 271.764938 406.89586 274.200607 405.240949 276.463641 405.554084 278.865203 405.321698 281.226403 405.295342 283.60566 404.480062 285.912407 404.668666 288.313031 404.688861 290.700414 403.738564 292.983503 404.529216 295.459313 405.173149 297.928042 404.667939 300.262845 402.609191 302.395051 402.598872 304.784786 402.7256 307.196393 401.905129 309.476782 402.6206 311.979345 401.306262 314.183082 401.982904 316.689573 400.513901 318.860594 400.876795 321.324265 401.404199 323.822068 399.233297 325.860424 398.868518 328.2044 398.866581 330.614575 399.895118 333.218836 398.326435 335.343757 397.370825 337.578223 398.500354 340.218574 397.09459 342.363267 396.521797 344.670846 395.755002 346.937534 394.741344 349.150235 395.212358 351.677401 393.656015 353.770095 394.198656 356.318756 394.054793 358.720536 392.247632 360.746752 392.463756 363.231157 391.390717 365.419379 392.022107 368.007446 391.319392 370.283182 390.286923 372.478202 389.239198 374.666851 390.113388 377.329133 389.481505 379.622032 387.483962 381.56898 386.461939 383.758072 387.254049 386.41344 385.913679 388.51991 386.191459 391.048452 386.052539 393.470587 384.18719 395.432554 384.512049 397.979969 382.940998 400.015928 383.646224 402.671761 382.595083 404.848204 380.487704 406.72933 381.277628 409.415928 379.095607 411.270459 379.674385 413.902378 378.046926 415.909193 377.672524 418.272341 378.299145 420.925547 377.190141 423.079256 376.438567 425.335821 375.122292 427.426641 375.521098 430.020546 373.078666 431.777099 373.62703 434.417221 373.509064 436.862387 372.229775 438.961083 371.951411 441.358808 370.480636 443.397788 369.33904 445.535808 368.378302 447.72708 367.580093 449.966506 368.297151 452.666628 368.050827 455.073598 366.829425 456.654235 368.295326 455.454968 370.67864 454.520734 372.386576 452.839261 374.064806 451.121797 375.417152 449.056819 377.455279 447.728343 379.581714 446.488085 380.471528 443.948574 382.996572 443.119272 384.791996 441.526321 385.4905 438.814107 387.490921 437.435558 389.47401 436.034841 390.687924 433.864905 392.077095 431.875859 394.893208 431.286809 395.643347 428.676441 397.550084 427.193065 399.830768 426.062434 401.320267 424.17397 401.744233 421.289035 404.097649 420.217351 406.072519 418.785547 407.060701 416.446052 409.281474 415.234286 410.671088 413.265704 412.252748 411.471742 414.517135 410.282362 415.797719 408.219627 416.288271 405.473277 418.136008 403.914591 419.411212 401.861385 421.107465 400.168472 423.481905 399.045722 423.865671 396.246571 425.77283 394.727361 428.294179 393.7092 429.627138 391.707252 431.05144 389.781877 432.793884 388.113702 434.00332 386.017111 434.98744 383.745574 437.41941 382.618819 438.122573 380.131459 440.444704 378.907481 441.054978 376.357227 443.196505 374.985666 444.911626 373.283314 446.369567 371.384568 447.033639 368.893315 448.457647 366.97405 450.372557 365.416476 451.128654 363.006062 452.281687 360.890652 454.332242 359.425394 454.876264 356.873783 456.743036 355.272095 457.52552 352.898698 459.096704 351.084984 460.950104 349.466383 461.714738 347.087729 463.50345 345.420307 464.55033 343.242754 467.200467 342.159413 466.998453 339.133444 468.463584 337.241565 470.795312 335.92799 471.152309 333.291998 473.689238 332.107948 474.536697 329.8016 474.699843 327.049191 476.01489 325.056151 478.005955 323.496569 480.453174 321.152275 478.601523 319.053126 475.863163 318.154503 474.878703 315.653608 473.002755 313.960981 471.646129 311.800125 469.043037 310.766789 467.631404 308.642601 465.028963 306.690676 468.0085 305.603814 469.639994 303.887907 472.285677 303.584775 473.62015 301.453669 474.965462 299.33304 476.73667 297.809838 479.617625 297.833723 480.825646 295.522116 483.018316 294.584571 484.32248 292.405337 487.211086 292.446963 488.772664 290.628709 490.650712 289.248207 492.260705 287.498807 493.830663 285.684095 496.092473 284.829783 498.773054 284.365946 498.419874 281.193255 500.724648 279.630376 500.591245 276.943169 502.668608 275.260701 502.121885 272.404736 503.941033 270.598468 505.20892 268.544645 506.108899 266.33097 506.528282 263.917006 507.908659 261.904444 509.653519 260.033888 510.581552 257.826892 511.426147 255.586554 510.770563 252.765449 511.985351 250.675799 513.895033 248.842671 513.249594 246.052688 513.679622 243.671165 514.674814 241.496314 516.361564 239.562436 517.686687 237.492917 518.94969 235.395851 518.895636 232.852944 519.979501 230.693714 520.140989 228.233103 521.634217 226.200601 520.878542 223.460409 521.439923 221.138708 523.751133 219.341565 522.790326 216.566441 525.278414 214.800874 524.613443 212.126788 526.518639 210.176009 525.728345 207.483609 527.01538 205.355563 526.484376 202.750777 528.667883 200.843105 528.026208 198.221453 529.890044 196.215719 530.086573 193.804018 529.534395 191.225508 530.531256 189.00425 531.671637 186.808338 531.526023 184.334255 531.382031 181.868116 533.590528 179.876209 533.670074 177.45372 533.136483 174.921434 534.00298 172.653339 534.920846 170.388826 534.282352 167.856443 535.841414 165.692755 535.569685 163.229248 536.363069 160.933083 536.819346 158.583101 536.73092 156.156868 536.81193 153.758 536.801636 151.350622 537.03051 148.97546 537.568348 146.635649 537.605201 144.239395 538.25354 141.906717 538.785264 139.557934 539.726295 137.2406 538.336443 134.726623 540.105658 132.465675 538.639612 129.967087 539.79117 127.648087 539.621021 125.244707 539.758848 122.859848 539.113079 120.443043 539.324337 118.065132 539.424945 115.682547 539.165775 113.292341 540.073093 110.921714 540.712459 108.537371 541.299532 106.144393 539.758802 103.759841 539.17288 101.38257 540.153253 98.978657 539.097387 96.619465 540.819013 94.172888 539.949899 91.813466 539.133852 89.462611 539.086383 87.077147 539.578087 84.654859 540.216465 82.212141 538.333393 79.961558 539.828541 77.436747 539.145261 75.095893 537.526223 72.859677 537.494256 70.467277 537.549002 68.06066 537.783555 65.625974 537.725374 63.046063 535.206464 62.12005 532.901917 61.154648 532.085673 58.293809 530.104666 56.935208 527.963491 55.738978 525.783032 54.538169 523.75372 53.126259 523.359729 50.188901 520.496496 49.466195 519.559934 47.105793 517.704472 45.421364 516.790591 43.113352 515.378154 41.076776 514.130318 38.892874 514.72886 36.166518 513.725621 33.898409 513.757173 31.457487 514.004873 29.05356 513.621422 26.516489 513.934537 24.008057 516.429071 22.393486 516.547225 19.922197 518.097546 18.080476 518.774102 15.779539 519.391624 13.328931 522.012276 12.383382 523.253815 10.379419 524.705924 8.493769 527.311458 8.050996 529.229357 6.854971 530.365196 4.138547 532.950497 4.10097 535.003308 2.950426 537.171762 2.008683 539.343237 .869728 541.828472 1.351068 544.14066 .948012 546.48613 .893681 548.832845 .128188 551.215867 0 553.594151 .513463 555.94666 1.026926 557.89352 2.868006 560.234355 3.146692 562.684542 3.55263 564.216639 5.501431 566.79018 6.229161 567.985369 8.409749 568.414675 10.953733 569.481718 12.991655 570.386423 15.116859 571.052578 17.347933 572.037694 19.469935 573.903951 21.310747 574.667823 23.541524 575.309868 25.813065 575.604634 28.224152 577.384817 30.046646 576.974768 32.836615 579.609258 34.13527 580.161372 36.52809 581.98 38.196915 583.374656 40.139994 584.077064 42.58294 586.446891 43.817825 587.193835 46.25277 588.871374 47.988499 589.335871 50.681352 591.650601 51.90805 592.961367 53.93499 595.272063 55.137528 595.50638 58.065868 597.73491 59.330433 600.0875 60.480877 601.27767 62.6158 603.085055 64.229448 604.438527 66.230143 605.65748 68.344753 607.342113 70.067318 608.430473 72.287401 610.364412 73.806718 611.215729 76.210244 613.925241 77.118913 615.315033 79.093688 616.471993 81.244843 617.456749 83.51477 619.758097 84.810356 619.784692 87.749369 621.993222 89.136453 623.19295 91.229285 623.926383 93.613017 624.989579 95.767074 627.483133 97.075393 628.597864 99.221084 628.515381 101.996533 630.195011 103.823149 631.176299 106.545048 633.508109 105.237321 635.849839 106.550358 638.072339 106.119705 640.204042 104.356365 642.588759 106.230592 644.783775 104.946804 646.108751 107.208764 644.969272 109.663199 646.027525 111.886468 644.919849 114.312307 645.553625 116.579127 646.432121 118.823755 645.416244 121.237977 645.526026 123.558136 646.834876 125.762857 646.594514 128.118943 647.560727 130.341951 647.907331 132.630245 648.303971 134.911239 648.957944 137.140233 648.916467 139.491543 649.504857 141.722847 650.263928 143.902371 650.721587 146.241484 650.433871 148.763442 651.638362 150.915454 652.99898 153.03719 652.101058 155.690009 654.008967 157.693248 653.896427 160.157161 654.4912 162.46199 655.055314 164.774216 655.452729 167.121307 654.584669 169.719421 656.44322 171.775004 656.840909 174.120777 657.320074 176.456083 656.153034 179.083042 658.285751 181.12672 658.018935 183.587256 658.669138 185.893429 659.471113 188.179092 658.493566 190.734088 658.758809 193.096087 658.835943 195.482866 661.213121 197.56438 660.859655 200.012626 660.665839 202.434039 660.666532 204.827563 661.734413 207.102362 662.635263 209.403578 661.97935 211.862495 661.727779 214.274259 662.962352 216.554538 662.685955 218.965897 661.825807 221.414198 663.409572 223.686458 663.472576 226.068296 662.287912 228.517855 663.627203 230.827431 664.254872 233.182177 663.743699 235.58562 663.268242 237.980725 664.188296 240.333491 662.985004 242.738124 664.328491 245.092744 662.697831 247.486277 663.32906 249.85568 664.350541 252.23382 663.133742 254.602355 662.505799 256.965993 662.739865 259.341027 663.94322 261.745524 663.708823 264.117405 664.015413 266.508274 664.188552 268.897718 663.499227 271.247166 662.556536 273.575984 663.483183 276.010107 662.681753 278.340714 663.625631 280.790477 663.32803 283.155782 661.369011 285.381169 662.738113 287.883074 660.748392 290.085386 661.212508 292.51377 660.922039 294.870298 661.661946 297.339877 660.367089 299.584815 661.037251 302.056152 659.876929 304.306908 659.42975 306.642108 659.328553 309.022871 659.040678 311.379454 658.013437 313.628589 659.279985 316.216667 658.558718 318.511219 658.40974 320.894003 657.346573 323.128072 658.094853 325.662955 656.750287 327.843863 655.470271 330.027786 655.412432 332.427764 655.613989 334.879634 654.981854 337.177185 655.133237 339.6267 653.105249 341.645123 654.604758 344.371147 652.017467 346.262032 652.879117 348.868168 652.909139 351.30522 652.239484 353.59246 651.138156 355.781925 650.435368 358.057713 649.169295 360.199766 650.327618 362.905253 649.599104 365.173678 649.263325 367.535768 648.065518 369.688495 646.933631 371.853516 646.878909 374.285511 646.922418 376.745864 646.183125 379.008845 645.775856 381.357402 645.020902 383.615739 644.486237 385.931877 642.763181 387.929506 641.857196 390.142914 642.108676 392.671851 641.529096 394.97589 640.850983 397.252908 639.072364 399.220703 638.278958 401.458312 637.929024 403.822423 637.922519 406.28717 636.628615 408.382255 637.646349 411.149553 636.48315 413.283623 635.595051 415.497603 635.528692 417.955573 633.085262 419.705535 632.948197 422.143471 631.886932 424.304464 632.62461 427.005769 630.928527 428.969884 630.835886 431.424018 629.910588 433.624737 629.288194 435.91982 628.908325 438.29166 628.619732 440.693949 626.618514 442.563145 626.724272 445.086452 626.033227 447.36374 625.364126 449.650899 624.026957 451.724518 624.230731 454.29244 622.95455 456.007977 624.152117 454.303698 625.737916 452.489211 628.317488 451.836364 630.468056 450.670464 631.831099 448.600196 634.280175 447.762458 634.843138 444.810073 637.448378 444.13466 638.668671 441.92719 640.817407 440.732433 642.918379 439.477831 644.467633 437.634105 646.460501 436.25724 647.355059 433.742344 648.810272 431.817709 650.626629 430.263197 652.590953 428.854066 653.5861 426.481675 656.819468 426.312081 658.148136 424.267786 659.944991 422.678804 660.742793 420.140333 663.065856 419.049358 663.834569 416.502008 665.724425 415.001515 667.601706 413.484619 668.89197 411.434023 671.297305 410.383859 672.916922 408.625408 673.370288 405.846151 676.157849 405.108432 677.371815 403.000016 678.118014 400.499645 679.502548 398.549714 680.869805 396.586316 682.51254 394.85331 684.493709 393.395859 685.593019 391.21566 686.992372 389.282909 689.49892 388.234778 690.1916 385.738331 692.599195 384.597204 692.746233 381.686457 695.456433 380.768912 697.367482 379.22444 698.674075 377.215983 699.613038 374.932771 700.288512 372.458894 702.641791 371.236486 702.926972 368.483379 704.322208 366.552974 706.715651 365.345562 707.054722 362.650682 709.280902 361.31376 709.971638 358.879898 711.308707 356.907753 714.264262 356.067774 715.262781 353.853344 716.873681 352.064943 716.765094 349.09465 719.246359 347.90248 720.810091 346.080551 720.611978 343.069376 722.070092 341.17934 724.920716 340.215698 726.17047 338.179669 727.210192 336.005313 728.008183 333.676189 729.256109 331.642966 730.198322 329.41036 732.225869 327.880434 732.513134 325.227176 734.819711 323.870688 736.442239 321.4261 733.403599 320.461607 733.471439 317.117686 730.691704 316.160646 729.367699 313.977424 727.297497 312.420372 725.361842 310.749499 725.033171 307.723825 722.76212 306.223644 725.508484 305.707107 727.060292 303.668811 729.172194 302.41354 730.734783 300.389984 732.373248 298.474221 734.355313 297.031997 736.217598 295.425863 738.1826 293.960394 740.186538 292.549034 743.174336 292.511883 744.707381 290.44742 746.93116 289.338148 748.768346 287.691038 750.496126 285.890822 752.204221 284.056477 755.42373 284.112354 754.841976 280.745916 756.80064 279.060985 758.31551 277.14993 759.359666 275.010878 760.844029 273.073552 760.137356 270.138638 762.485419 268.586369 762.225014 265.874305 763.461757 263.822755 765.652026 262.168691 765.211162 259.405965 767.314696 257.698513 766.947437 254.985712 767.6019 252.691971 768.438266 250.471347 769.37503 248.288941 769.973648 245.979398 772.3079 244.306573 772.273449 241.764377 773.88531 239.81229 774.74137 237.588496 775.050798 235.178663 774.583845 232.51708 777.002051 230.810119 777.703 228.533679 777.029311 225.827785 778.095295 223.67313 778.07208 221.186935 780.685093 219.483939 780.062506 216.826227 781.996993 214.903874 780.665351 212.066439 782.136741 210.007504 783.01291 207.781496 782.817468 205.276579 784.379887 203.222569 785.692085 201.09541 784.653878 198.396925 785.524143 196.162625 786.466424 193.940772 787.206336 191.669157 787.976209 189.401344 787.145478 186.794217 787.85754 184.517441 789.028529 182.328975 788.470194 179.799066 789.90536 177.653435 790.078097 175.267532 791.426786 173.090902 791.558986 170.696968 790.967429 168.18726 792.381952 166.006523 792.593214 163.63011 793.471411 161.353487 793.120142 158.89693 793.263632 156.515308 792.984735 154.080718 792.887472 151.675371 793.866087 149.40229 794.995563 147.138396 793.941839 144.630054 794.031475 142.25298 795.476072 140.007288 795.188246 137.591034 794.867745 135.177742 795.571452 132.851451 795.386616 130.454088 795.112537 128.054831 796.752136 125.779196 796.793294 123.396611 795.326995 120.939058 795.458975 118.571312 796.318246 116.231648 795.649286 113.83259 797.283244 111.505109 795.892834 109.094621 796.50795 106.732283 796.790442 104.360022 797.901815 101.987835 795.856428 99.608454 797.318758 97.224723 797.197404 94.846026 796.493995 92.480445 797.393647 90.080696 797.222055 87.704282 796.830519 85.337758 796.898796 82.954507 796.144342 80.609767 796.135808 78.230727 795.179012 75.911171 795.802532 73.491599 795.018876 71.168478 796.485781 68.667671 796.378303 66.287596 796.08756 63.452721 793.31592 62.606324 791.665638 60.833493 789.594904 59.723582 787.227784 58.983398 785.920626 56.83725 783.102232 56.525797 781.421743 54.820664 780.610875 52.285675 779.074276 50.53299 777.992292 48.431723 776.695343 46.544247 774.65792 45.087779 772.659073 43.44448 771.870237 41.148693 772.391106 38.492423 770.941199 36.427119 771.099862 34.022271 771.53835 31.689493 770.30795 29.266252 770.470527 26.84173 771.870858 24.714631 772.067426 22.284725 772.498515 19.87343 773.677759 17.745019 775.078503 15.762144 776.115034 13.565533 777.378543 11.470139 780.111267 10.709471 781.407873 8.674309 783.674529 7.766707 785.636835 6.556829 787.267211 4.687623 789.474674 3.831174 791.766826 3.254332 793.933597 2.293431 796.237579 1.776126 798.618753 1.768212 800.843324 .333593 803.238731 .243746 805.630005 1.28733 807.979932 1.326919 810.313841 2.031457 812.825889 1.551983 814.79471 3.279062 817.35763 3.267531 819.690495 4.139904 820.714736 6.666013 823.450698 7.398223 824.105247 9.94034 825.462253 11.92796 826.020111 14.323101 828.667627 15.845848 829.295094 18.238044 829.811082 20.646775 830.994054 22.810601 831.021649 25.380458 832.398225 27.450761 832.888732 29.872702 833.367655 32.366735 834.904016 34.327287 836.157491 36.45932 838.146597 37.958732 839.903057 39.639652 841.418482 41.505703 842.833518 43.447642 843.179441 46.213428 845.507224 47.452868 847.050289 49.299449 849.058664 50.785175 849.573029 53.421892 851.146166 55.234729 852.96688 56.857091 853.861883 59.195384 855.380927 61.057358 857.88546 62.162987 859.255118 64.138718 859.273852 67.153967 861.568136 68.416745 862.459724 70.765565 864.875997 71.938643 865.370272 74.590454 867.508787 75.977038 868.626931 78.153543 870.778211 79.530373 872.273697 81.416212 873.749275 83.315695 874.684281 85.634704 876.724067 87.100344 876.779385 90.097044 879.51482 91.028013 880.637171 93.197269 881.262813 95.753442 882.657243 97.72049 884.838022 99.077115 886.343633 100.961245 888.061071 102.687014 889.300118 104.831118 891.590458 105.790207 893.989031 105.808847 896.441606 105.481895 898.731998 106.203225 901.101749 106.43846 903.007478 107.807564 904.11567 109.30662 904.15597 111.722504 903.802194 114.146187 903.550291 116.560955 903.705964 118.970406 902.760303 121.406142 903.855088 123.796312 904.687821 126.179898 905.147665 128.565661 905.330422 130.955097 904.766757 133.403355 903.792611 135.951709 905.346233 138.16287 905.854894 140.493867 905.673241 143.002432 905.698341 145.451863 906.50312 147.704416 906.899948 150.057317 908.829724 152.046849 908.164633 154.649275 910.122468 156.646716 909.484049 159.232369 910.409883 161.468344 911.702046 163.631182 911.714519 166.065608 912.92966 168.253699 912.081533 170.852972 913.702623 172.968561 913.027145 175.521449 914.820734 177.624508 914.585993 180.095679 914.970167 182.455104 915.406805 184.805576 916.346432 187.076906 915.071559 189.691972 915.356053 192.059544 915.627262 194.428042 917.814389 196.535558 917.707364 198.962325 917.813071 201.357729 917.138061 203.843413 917.875428 206.158443 917.655333 208.581249 919.556762 210.783391 919.556681 213.186267 918.003759 215.72552 919.597168 217.980303 919.05935 220.417283 919.181867 222.798029 919.207976 225.184387 919.612033 227.54631 919.841527 229.920624 919.129868 232.341289 921.315343 234.629779 920.79136 237.04109 919.509309 239.467819 919.420651 241.849325 920.731288 244.203528 920.021999 246.597386 920.849152 248.972801 921.228788 251.357923 921.656522 253.747758 920.934211 256.12919 919.897716 258.49664 920.159731 260.882969 920.624632 263.279026 919.181612 265.613446 919.078915 267.98737 920.65568 270.440795 919.798171 272.784405 919.699444 275.164226 920.222834 277.584818 919.302122 279.911221 919.902362 282.345023 918.548919 284.627461 918.644161 287.023745 918.389899 289.390829 919.026639 291.84625 917.997009 294.137245 918.254006 296.560791 917.526554 298.876363 917.618839 301.285764 916.465753 303.542259 916.984563 306.008926 917.644702 308.503404 915.429882 310.601102 914.963579 312.935823 916.172421 315.523188 914.504946 317.675887 914.212232 320.037668 915.37781 322.642596 914.469568 324.907846 913.541547 327.16481 914.235338 329.709128 911.951194 331.713655 912.899679 334.312886 912.103882 336.586907 911.713519 338.938112 911.456319 341.316804 909.685953 343.385526 909.860381 345.852335 909.575507 348.226207 910.058689 350.769128 909.028398 352.984115 908.966749 355.413555 906.531769 357.302895 906.777883 359.798898 907.193153 362.340501 904.835313 364.225033 905.705275 366.880892 903.659688 368.829496 904.219856 371.41763 904.302556 373.892609 903.497414 376.145395 901.727551 378.148454 902.412739 380.784678 901.651445 383.047407 899.676327 384.986905 900.483028 387.666072 900.375868 390.105087 899.616467 392.368622 898.225086 394.457718 896.595305 396.477515 896.53275 398.931652 897.218128 401.593462 896.245781 403.790979 895.92839 406.174865 895.286095 408.467253 894.21788 410.637227 893.808864 412.998076 891.270823 414.738315 890.750627 417.066238 890.960763 419.610905 889.219282 421.580202 889.314735 424.094391 888.529137 426.347881 887.539343 428.540602 888.223065 431.23732 887.310484 433.449394 886.287131 435.629177 885.008044 437.732365 885.395859 440.344221 884.93698 442.700759 884.304366 445.006009 881.710569 446.705676 882.738922 449.520072 881.713639 451.707883 881.518327 454.149993 880.178636 455.604336 880.99681 453.825162 883.481757 453.075861 884.816868 450.963392 886.487416 449.252001 888.788383 448.264014 890.404063 446.489351 892.594997 445.360567 894.512263 443.919473 896.398386 442.440752 897.275663 439.873508 899.219969 438.462923 901.57906 437.478547 902.7601 435.255299 904.245144 433.357598 905.656832 431.39102 907.760964 430.126553 909.956507 428.943728 911.843067 427.446489 913.70675 425.92274 915.154542 423.995765 916.299456 421.785826 918.828453 420.88676 918.944678 417.727406 920.935442 416.321962 922.865353 414.85398 923.872786 412.549264 926.085787 411.330165 928.119648 409.941765 929.825658 408.259109 931.623315 406.653594 932.805556 404.517273 934.825144 403.097544 935.490911 400.53295 936.715576 398.447433 938.771763 397.052324 939.703329 394.728769 941.727184 393.298583 942.835641 391.126313 945.376137 390.09937 945.609764 387.237915 947.490302 385.682003 948.604133 383.525699 950.487317 381.966372 952.600116 380.577476 954.118175 378.729982 954.388922 375.942943 956.974243 374.898513 956.895195 371.864802 958.726749 370.254602 960.169006 368.355721 961.677286 366.5046 964.120358 365.328171 965.55968 363.421512 966.448026 361.121143 966.721818 358.388582 969.345459 357.324082 971.067349 355.616665 971.930637 353.306687 972.279999 350.642748 974.542552 349.30968 976.501237 347.763476 977.008655 345.217506 978.678043 343.470065 979.815116 341.358062 981.656795 339.724613 983.018519 337.763865 983.609167 335.282932 984.936332 333.302305 986.65567 331.583026 986.994758 328.938513 988.462616 327.048234 989.842093 325.100029 991.478388 323.318364 993.422305 321.240553 990.669021 320.230432 990.323047 317.220514 987.749954 316.228425 986.03405 314.454229 985.108461 311.967151 983.282734 310.289636 981.115781 308.916588 980.325174 306.877453 982.066469 306.120875 983.909644 304.719326 984.671497 301.83851 987.26295 301.457421 988.84795 299.699063 990.382137 297.873593 993.403622 298.072931 995.323797 296.772584 996.648453 294.669565 998.924098 293.850657 999.663468 290.94291 1002.266935 290.572336 1004.521741 289.721801 1005.952179 287.752512 1007.096667 285.38404 1009.921145 285.30056 1011.982425 284.034158 1012.545592 281.389065 1012.932555 278.941223 1014.791345 277.18129 1015.185737 274.743555 1017.176831 273.02923 1018.320537 270.927204 1018.114812 268.236115 1019.635391 266.299365 1019.473387 263.645626 1022.260167 262.229842 1021.997297 259.543836 1022.601324 257.221411 1023.84419 255.155351 1024.341346 252.79431 1026.50128 251.074535 1027.511869 248.905386 1028.241284 246.629982 1028.10833 244.041941 1028.950446 241.81454 1028.820122 239.244817 1031.048386 237.500896 1032.306056 235.409872 1032.24928 232.875106 1032.602146 230.484158 1034.618285 228.631397 1034.027392 225.943108 1035.709826 223.972126 1036.59602 221.748347 1035.971 219.074127 1036.533083 216.760359 1036.619586 214.312504 1039.312146 212.596999 1039.247391 210.105631 1039.830172 207.795046 1040.872567 205.604524 1041.71726 203.358383 1042.267445 201.035947 1042.398603 198.612108 1042.431131 196.170016 1043.499626 193.973098 1042.660593 191.340951 1043.254274 189.038565 1045.131291 187.008494 1046.032301 184.759952 1046.114563 182.341759 1045.094484 179.712943 1045.460989 177.364083 1047.002168 175.231521 1046.214545 172.672548 1047.103979 170.41548 1048.124713 168.174371 1047.754394 165.7037 1047.768609 163.300995 1050.138255 161.250388 1049.62941 158.76762 1049.406451 156.333735 1050.568131 154.086088 1049.732694 151.580929 1051.521978 149.398533 1052.161827 147.069475 1052.322301 144.685186 1051.000073 142.154118 1051.279728 139.791962 1051.406867 137.415529 1051.562792 135.042446 1051.632775 132.663367 1052.965892 130.373148 1052.097538 127.929632 1052.100019 125.548286 1053.92217 123.261019 1054.055199 120.877383 1052.399523 118.424823 1053.762064 116.090974 1054.119125 113.715065 1053.080261 111.308195 1053.835166 108.938729 1053.422775 106.552116 1052.448302 104.170727 1054.598831 101.783287 1053.369578 99.40988 1052.422024 97.046346 1054.283799 94.623393 1053.335213 92.265029 1052.439339 89.916129 1053.966886 87.468733 1051.950657 85.182883 1052.546655 82.769884 1051.655532 80.443869 1053.249594 77.949095 1052.052348 75.649918 1051.317615 73.325124 1052.750522 70.807728 1051.146164 68.568641 1052.387553 66.046766 1051.302932 63.74183 1048.79876 63.203068 1047.935515 60.434816 1046.204143 58.899461 1043.265207 58.850588 1042.744379 55.864612 1040.891664 54.491802 1039.2568 52.880847 1037.698904 51.202221 1035.821387 49.80351 1034.806455 47.680674 1031.749547 47.030584 1030.874133 44.770272 1029.30298 42.914316 1028.757768 40.5397 1029.041815 37.974864 1029.00213 35.672222 1028.002921 33.551521 1027.008954 31.26812 1026.600224 28.838279 1027.848563 26.629114 1027.768696 24.151919 1028.447442 21.828204 1031.117148 20.350271 1030.39223 17.375006 1032.440641 15.763223 1033.844375 13.85595 1035.713616 12.338974 1036.231763 9.646008 1038.921841 9.021675 1040.464159 7.245716 1042.169664 5.579769 1043.96606 3.915292 1045.937965 2.40519 1048.464768 2.233145 1051.02837 2.589824 1052.947488 .320061 1055.512152 1.230426 1057.787733 .039649 1060.198851 .568525 1062.590512 .098505 1064.950732 .607996 1067.388005 .291612 1069.540167 1.617441 1071.803156 2.208395 1074.220409 2.587179 1076.000537 4.266835 1078.25746 5.214137 1079.115725 7.705249 1081.35774 8.858725 1083.023946 10.612551 1084.515446 12.527389 1085.296562 14.807111 1085.004592 17.49413 1087.431903 19.053645 1087.1967 21.654195 1088.847045 23.541716 1088.381335 26.214053 1090.047265 28.081451 1091.015571 30.204186 1091.279077 32.655437 1091.677109 35.118099 1093.716021 36.687529 1094.624319 38.972733 1096.487095 40.638982 1097.335056 42.987675 1098.582367 45.074399 1100.199255 46.89044 1102.367527 48.268216 1104.199944 49.884549 1104.427941 52.801328 1106.219472 54.456966 1108.871588 55.375077 1110.18327 57.418908 1110.966471 59.925831 1112.169443 62.072621 1115.249226 62.584918 1116.899865 64.342546 1118.005021 66.575483 1118.718404 69.140802 1120.704696 70.610683 1122.186695 72.512013 1124.158396 74.009602 1126.229469 75.442682 1126.862131 78.027469 1128.659502 79.688873 1129.185654 82.307817 1131.982385 83.257412 1132.70573 85.71 1133.52653 88.06318 1134.972689 89.990262 1136.974632 91.588855 1137.111296 94.309727 1138.429071 96.318641 1139.597499 98.416382 1141.04841 100.379515 1142.700594 102.060615 1144.352695 104.005769 1146.914674 103.980883 1149.304357 103.965486 1151.300949 105.790256 1153.837262 104.565767 1156.050878 105.556724 1158.982893 105.254637 1159.461206 108.197325 1159.204597 110.616462 1159.345691 113.001614 1158.766848 115.443343 1158.593016 117.854005 1159.131318 120.206054 1159.941064 122.53134 1160.96482 124.825741 1159.25099 127.397445 1160.104081 129.713529 1160.450052 132.082715 1161.979683 134.293257 1161.794739 136.724181 1161.239251 139.229332 1162.266636 141.48369 1163.099549 143.752074 1163.124428 146.183748 1163.146588 148.635513 1164.514855 150.744763 1165.570556 152.925593 1165.992799 155.281275 1166.327315 157.656824 1167.758496 159.752688 1167.584105 162.253008 1168.170141 164.562357 1168.765481 166.870074 1168.278342 169.419452 1169.05078 171.683221 1170.527419 173.804408 1170.097681 176.322829 1171.830882 178.409289 1171.489822 180.9012 1171.855097 183.255223 1171.378324 185.755548 1171.551414 188.13579 1173.822674 190.180184 1172.598664 192.780912 1174.198258 194.950998 1174.067626 197.376831 1175.214317 199.628993 1175.459161 202.00446 1173.789367 204.603903 1175.811945 206.768424 1176.208785 209.125498 1175.919847 211.55118 1176.013411 213.9352 1176.257491 216.304888 1177.302617 218.613027 1177.374878 221.00135 1175.606458 223.50701 1176.785855 225.816731 1177.511067 228.163215 1177.404092 230.554991 1176.903542 232.959322 1176.742993 235.345025 1176.673271 237.725315 1177.728522 240.08109 1176.367574 242.483457 1177.447433 244.849041 1177.377093 247.229803 1177.648379 249.610976 1177.27247 251.989042 1176.835817 254.361943 1176.70394 256.736751 1176.808714 259.117128 1177.981198 261.534976 1176.726448 263.87254 1177.394578 266.282704 1176.149981 268.605441 1177.422608 271.056127 1176.345791 273.378225 1177.18201 275.817898 1175.977238 278.120938 1175.07732 280.436491 1176.367253 282.925997 1174.878862 285.186241 1175.725437 287.651169 1175.35265 290.006989 1173.867589 292.246071 1174.417845 294.693689 1174.365237 297.080863 1173.733774 299.401481 1174.616792 301.905783 1173.788965 304.201786 1173.738295 306.596227 1172.699515 308.856844 1171.831615 311.135114 1171.743112 313.523238 1172.601526 316.057535 1171.152246 318.242041 1171.437563 320.695806 1170.128977 322.892083 1169.360953 325.172003 1170.82193 327.836397 1170.603745 330.217603 1168.945741 332.337914 1167.879891 334.558413 1168.188257 337.035674 1167.237844 339.274119 1167.843168 341.817567 1166.512465 343.977419 1166.154516 346.331361 1165.235346 348.568333 1164.388292 350.817542 1164.851928 353.349452 1165.319482 355.889374 1164.098267 358.056656 1162.666088 360.170003 1163.790683 362.869907 1162.44122 364.999207 1162.320978 367.416432 1160.630618 369.456691 1160.18725 371.795376 1160.10477 374.224619 1158.500659 376.274288 1158.41542 378.704428 1158.107947 381.080464 1157.770441 383.450462 1157.364255 385.803962 1155.989708 387.900683 1156.185637 390.415969 1154.769711 392.497448 1154.10439 394.780865 1153.720524 397.142232 1152.800323 399.354868 1152.898142 401.852792 1152.142942 404.111537 1150.718282 406.177553 1150.433066 408.570145 1149.776737 410.856279 1148.477303 412.95337 1147.809218 415.235 1148.504751 417.923997 1147.717862 420.173177 1145.932923 422.11991 1145.714216 424.53961 1145.405221 426.932749 1145.391814 429.418767 1144.132149 431.520798 1143.141002 433.704842 1143.171182 436.208553 1141.321263 438.121944 1140.133185 440.241665 1140.47427 442.846472 1138.791884 444.807349 1138.121777 447.091217 1138.127715 449.593851 1136.4949 451.567008 1136.604761 454.105583 1135.528179 456.259424 1134.491816 458.429672 1134.588263 460.926377 1133.587894 463.072845 1133.567392 465.534274 1131.481671 467.328723 1130.911057 469.612596 1131.069194 472.13387 1129.222465 474.007021 1130.328596 476.833605 1128.536716 478.725914 1129.116826 481.384121 1128.3392 483.603761 1125.66449 485.21394 1124.958914 487.458001 1125.24844 490.018314 1124.075833 492.111265 1124.550221 494.737184 1122.989501 496.70833 1122.552754 499.041916 1120.93229 500.923432 1120.375402 503.36936"/>
  </g>
</svg>