<?xml version="1.0" encoding="UTF-8"?>
<svg id="Layer_2" data-name="Layer 2" xmlns="http://www.w3.org/2000/svg" width="1706.375977" height="162.546875" viewBox="0 0 1706.375977 162.546875">
  <g id="Journeyman">
    <g>
      <path d="M51.90918,162.327148l-1.539551-.439941-3.519531-.220215-7.478516-1.539551-6.818359-1.979492-2.859375-1.539551-4.179199-1.759766-4.179199-2.199707-3.739258-3.079102-3.958984-3.519531-2.199707-3.519043-2.419434-3.519531-2.419434-4.179199-2.419922-6.378418-1.319336-4.179199-.660156-4.179199-.879883-4.398926-.439941-2.859863-.439941-3.519043-.219727-2.639648v-3.739258l-.219727-5.71875.879395-4.179199,1.319824-2.859375,2.639648-2.63916,3.739258-1.319824,3.519043-.439941,6.378906.439941,2.859375.879883,2.859375,2.419434,1.539551,3.739258.220215,4.619141-.220215,6.818359.220215,5.499023.219727,1.539551.660156,2.639648,1.099609,2.859375.879883,3.519043,4.179199,5.938965,4.619141,3.958984,3.739258,1.97998,5.058594,1.759277,6.15918,1.100098,4.178711.439941,2.419922-.220215,2.63916.439941,4.619141-.659668,6.378906-1.540039,3.739258-1.319336,3.079102-1.759766,4.619141-3.959473,3.519531-6.158691,1.099609-4.838867.219727-2.199707.660156-3.739258.219727-4.619141v-2.63916l.220215-2.419434-.220215-2.199707.220215-2.859375.219727-3.07959v-5.278809l-.219727-5.278809.219727-3.739258-.219727-1.759766v-9.897949l-.220215-1.319824v-6.598633l.220215-.879883v-5.498535l-.439941-6.818848v-11.657715l-.220215-4.179199v-4.179199l.220215-6.818359.219727-7.918457,2.419434-4.838867,3.299316-1.97998,6.15918-.879395,7.258301.439941,3.958984,1.979492,1.319824,1.979492.660156,2.199707.439941,5.278809.219727,4.619141.220215,1.539551v2.859375l.219727,4.179199-.219727,2.859375.219727,3.07959v13.197266l.219727,4.619141-.219727,4.179199v5.71875l-.439941,6.598633.220215,3.299316-.220215,4.619141v8.358398l-.219727,7.917969v3.959473l.219727,6.818359v3.519531l-.219727,3.299316-.439941,4.619141-.220215,4.179199-.879883,4.838867-1.319336,2.859375-.439941,2.199707-.879883,3.079102-1.540039,3.959473-1.759277,3.299316-1.759766,2.859375-2.199707,2.63916-2.63916,3.519531-4.619141,3.299316-3.519531,2.419434-2.419434,1.539551-4.179199,1.97998-4.398926,1.539551-2.639648.659668-4.619141,1.319824-3.299316.660156-7.698242,1.099609-2.199707.219727h-4.838867l-5.059082-.219727Z"/>
      <path d="M236.228516,161.227539h-3.739258l-3.299316-.220215-4.398926-.659668h-5.499023l-3.959473-1.100098-2.199219-.439941-2.859375-.659668-3.959473-1.539551-5.278809-1.979492-4.398926-2.419922-2.199707-1.099609-2.419434-1.539551-2.859375-1.540039-1.97998-1.539551-2.199219-1.319824-3.07959-2.859375-3.739258-3.299316-2.419434-2.419434-7.918457-9.458008-3.079102-5.938965-2.639648-4.838867-2.859375-5.059082-1.319824-4.838867-1.099609-2.859375-1.100098-5.278809-.879883-4.399414-.219727-2.639648-.659668-3.73877-.220215-3.07959.220215-3.739258v-6.378906l.659668-4.178711.439941-3.959473,1.759766-5.499023.659668-3.519043,1.759766-5.059082,2.199707-5.71875,1.979492-3.07959,2.199219-4.838867,4.179199-6.598633,3.739258-5.059082,2.199707-1.979492,1.539551-1.979492,2.199707-2.419434,2.199707-2.199707,1.759277-.879883,2.419922-2.419434,5.938477-3.299316,5.278809-2.639648,6.15918-2.859375,4.618652-1.319824,2.859863-1.319824,5.938477-1.979492,5.499023-.879883,3.519043-.659668,5.279297.219727,7.698242-.219727,5.278809.439941h2.419434l3.959473.659668,4.398926,1.100098,2.859375.659668,1.97998.879883,3.299316,1.099609,3.079102,1.100098,3.07959,1.539551,3.519043,1.979492,4.619141,2.419434,6.158691,3.959473,4.619141,3.739258,4.619141,4.398926,5.499023,6.598633,3.519043,4.179199,1.539551,2.199707,1.319824,2.63916,1.539551,2.199707,1.97998,3.958984,2.199219,5.059082,1.319824,4.399414,1.100098,3.519043.439941,1.979492.879395,2.859375,1.100098,5.499023.439941,3.519531v3.079102l.219727,3.519531-.439941,3.739258-.439941,5.71875-.439941,3.519043-.219727,3.519531-.660156,4.398926-.659668,2.639648-.879883,3.739258-1.979492,5.278809-1.759766,4.838867-1.979492,4.179199-1.539551,2.639648-1.100098,2.199707-1.759277,2.199219-1.540039,1.97998-1.319336,1.979492-.879883,1.539551-1.319824,1.539551-2.419434,2.419434-2.859375,2.199707-1.97998,1.979492-1.539551,1.319824-1.979492,1.539551-1.759766,1.540039-2.199707,1.319824-1.539551,1.319336-2.639648,1.759766-4.398926,2.419434-4.838867,2.859375-3.739258,1.540039-2.419434.879883-4.619141,1.539551-5.499023,1.539551-4.619141.659668h-6.378418l-5.059082-.439453ZM243.707031,135.712402l2.859375-.219727,1.319824-.220215,1.099609-.659668.879883-.439941,2.859375-.439941,2.859375-1.319824,2.639648-.879883,4.179199-2.199219,4.398926-2.859375,5.71875-4.179199,3.299316-3.519531,1.100098-1.319824,1.759277-2.63916,3.299316-4.179199,4.399414-6.598633,1.319824-4.839355.879395-4.179199.660156-4.838867.439941-5.938477.439941-3.07959-.439941-5.71875-1.539551-7.918457-1.540039-5.059082-2.199219-4.619141-1.100098-3.739258-1.319824-2.419434-1.759277-3.519043-2.639648-3.299316-1.539551-1.97998-2.419434-2.419434-7.478516-5.938477-7.038574-4.179199-4.179199-1.759766-4.619141-1.319824-1.759766-.439941-2.859375-.879883-3.739258-.879883h-12.097656l-3.299316.660156-3.958984.439941-5.059082,1.539551-7.258301,3.07959-12.317871,7.038574-2.199219,2.419434-1.759766,2.199219-1.319824,1.100098-2.639648,3.739258-1.979492,3.739258-1.099609,1.539551-.879883,2.419434-1.539551,2.859375-1.319824,3.519531-1.099609,3.519043-.439941,3.07959-1.100098,4.838867-.439941,5.499023.220215,2.63916.219727,3.07959.439941,3.519531v3.299316l.220215,1.099609.659668,2.419434.879883,3.959473.659668,3.299316,2.639648,4.838867,5.278809,7.918457,4.179199,5.278809,1.539551,1.759766,3.519531,3.079102,4.398926,2.859375,1.540039.879883.879395.439941,3.959473,2.199707,4.619141,2.199707,3.739258,1.099609,6.158691,1.099609,6.158691.879883,5.278809.220215,6.378906-.660156Z"/>
      <path d="M403.169434,161.666992l-2.63916-.659668-2.859375-.659668-2.859375-.439941-3.739258-.879883-4.839355-1.759766-3.299316-1.539551-2.199219-.660156-3.299316-2.199219-3.07959-1.540039-2.419434-1.979492-2.859375-2.419434-1.539551-2.199707-2.639648-2.63916-2.859375-3.519531-1.540039-2.859375-1.099609-2.199707-.659668-1.979492-.879883-3.299316-1.539551-4.619141-1.100098-4.179199-.219727-2.419434-.660156-1.759277.220215-3.519531v-7.478516l-.439941-3.299316v-1.319824l-.220215-2.419434-.219727-3.958984.439941-3.959473.219727-4.179199v-3.958984l-.439941-3.519531.660156-1.539551-.220215-2.199707v-5.938477l-.219727-2.419434v-1.97998l-.439941-2.859375v-9.237793l.219727-2.859375v-1.97998l-.219727-3.079102-.219727-2.859375v-15.617188l-.220215-3.079102.439941-3.07959-.219727-3.958984.219727-3.959473.439941-3.299316.879883-1.759277,2.199219-1.540039,4.179199-1.319336h3.519531l2.419434-.439941,2.199707.439941,3.079102.879395,2.639648.879883,2.199707,1.759766.659668,2.419434-.219727,2.419434.439453,2.199707.220215,3.739258v3.519043l-.439941,1.100098.219727,2.199707v5.938477l.439941,2.859375v3.739258l.220215,1.759766.219727,2.419434-.439941,2.199707v2.419434l-.219727,2.199707.219727,5.938477v5.719238l.220215,1.319336.219727,1.759766-.219727,1.319824v2.419434l-.220215,2.419434.439941,1.979492-.219727,3.959473-.220215,4.179199.220215,1.539551v2.639648l-.220215,1.759277.439941,2.199707-.219727,3.519531-.220215,3.739258v5.058594l.439941,6.598633.220215,5.059082,1.099609,4.179199,1.100098,5.278809,3.299316,5.059082,2.419434,3.07959,1.759277,1.319824,3.299316,2.199219,3.959473,1.979492,2.859375,1.100098,3.299316,1.099609,2.859375.660156,2.859375.439453,3.739258.220215h1.759766l5.499023.219727,9.237793-.659668,3.739258-1.099609,4.619141-1.540039,4.179199-1.539551,1.979492-1.759766,2.639648-2.419434,1.759766-2.199219.879883-.660156,1.319336-2.419434,1.100098-2.859375.439941-1.979492.439941-2.199707.439941-2.639648.439453-2.859375v-4.398926l.439941-3.07959-.219727-1.099609.439941-1.539551-.220215-2.419434.220215-5.499023v-5.278809l.439941-4.399414v-5.278809l-.439941-3.07959v-2.63916l-.220215-4.179199v-8.578125l-.219727-2.639648v-6.818848l-.220215-2.199219-.219727-4.619141v-3.739258l.439941-6.158691v-5.059082l-.220215-3.519531v-3.519043l-.219727-5.059082.439941-4.619141.879883-4.179199,1.759766-1.979492,1.979492-.879883,3.079102-.659668,3.739258-.439941h3.07959l3.079102.439941,3.519531,1.539551,3.299316,2.859375,1.099609,4.619141.439941,3.519531v3.958984l.220215,3.519531-.220215,5.71875v12.977051l-.219727,5.938965-.439941,3.519531-.220215,3.739258v3.519043l.220215,3.07959-.220215,4.398926.220215,5.71875v16.056641l-.220215,3.959473v5.278809l.220215,4.838867-.220215,5.279297-.219727,3.299316-.660156,5.498535-.659668,4.399414-.659668,2.419434-1.540039,5.278809-1.539551,4.179199-1.979492,3.739258-2.419434,3.739258-3.299316,5.499023-3.739258,4.179199-.879883.659668-1.759766,1.099609-2.199707,1.100098-1.759277,1.099609-3.519531,1.539551-4.619141,2.199707-4.179199,1.319824-3.958984.659668-2.639648.879883-8.35791,1.099609-4.399414.879883h-16.716309l-2.859863-.879883Z"/>
      <path d="M637.196777,159.907715l-2.199219-1.100098-1.759766-1.539551-2.419434-2.63916-2.639648-3.739258-1.759766-2.199707-1.759277-2.419434-1.759766-2.639648-1.979492-2.859375-1.319824-2.199707-1.759766-2.199219-2.419434-3.519531-3.519531-3.958984-2.419434-3.07959-1.979492-2.859375-2.859375-3.519531-3.299316-3.958984-2.639648-3.739258-3.519043-4.179199-2.199707-3.079102-1.319824-1.759766-1.539551-1.099609-2.199707-1.540039-2.199219-1.099609-2.419922-.439941-2.859375-.439941-1.979492.220215-13.637207-.439941-5.278809.439941-4.399414,1.539551-1.099609,3.519043-.439941,5.938965-.439941,5.059082-.219727,2.63916-.220215,5.719238v4.398926l.220215,6.158691-.220215,1.759766v4.179199l-.219727,3.739258v4.618652l-.439941,3.07959-.439941,3.519531-1.099609,2.199219-1.100098,1.319824-1.319824.659668-2.199219.660156h-2.639648l-3.958984.439941-4.839355-.439941-2.419434-.439941-2.199219-.879883-1.97998-3.519043-1.099609-3.07959v-5.278809l-.219727-5.278809-.220215-2.199707.659668-8.578125v-5.279297l-.219727-4.398926-.439941-3.519531v-14.956543l.220215-4.179199.219727-2.639648-.219727-1.759766v-10.117676l.219727-4.179199v-8.578125l-.219727-4.619141v-3.07959l.439453-2.199707-.439453-2.63916v-4.399414l-.220215-1.539551.220215-1.319824.219727-2.199219v-3.959473l-.219727-.879883.439453-3.299316v-10.557617l-.439453-2.199707.439453-2.199707-.659668-4.179199v-3.958984l.220215-4.398926.879395-3.739258,1.319824-1.97998,1.319824-1.099609,2.419434-1.319824,6.378906-.879883,9.677734.439941,7.69873-.219727,5.059082-.220215h3.519043l2.419434.220215,3.739258-.220215,5.059082-.219727,11.217773.219727h2.859375l4.179199-.219727h10.117676l5.059082.219727,11.87793,1.100098,2.63916.659668,3.959473,1.319824,5.058594,2.199707,5.499023,3.299316,3.07959,3.079102,1.759277,1.97998,3.299316,3.519043,1.97998,3.739258,1.099609,3.519531,1.539551,3.73877,1.100098,3.07959.879883,1.759766.439453,1.979492.439941,1.759766-.219727,2.63916.219727,2.859375.220215,5.279297.219727,6.818359-.219727,3.299316-.439941,1.759766-.659668,2.419434-.879883,2.419434-1.540039,4.399414-2.199219,5.058594-1.319824,1.97998-1.319824,2.199219-2.419434,2.639648-2.199707,1.979492-2.199219,2.419434-3.739258,2.419922-2.639648,1.319336-3.739258,2.639648-4.619141,1.979492-1.319824,1.319824.220215,1.099609.219727.879883,1.319824,2.199707,2.419434,3.958984,3.07959,3.739258,2.199219,2.639648,1.100098,1.979492,1.759766,1.979492,6.598633,9.458496,2.419434,3.079102,2.63916,3.519531,2.199707,2.63916,1.759766,2.859375,2.419434,3.07959,1.539551,3.958984-.439941,1.540039-.879883,2.859375-2.63916,4.398926-3.07959,1.979492-3.739258,2.639648-4.838867,1.979492-2.199707-.659668ZM607.50293,73.245117l1.979492-.219727,2.419434-.220215,1.759766-.219727,2.199707.219727,1.979492-.879883,1.539551-.659668,1.97998-.660156,1.319336-1.099609,1.540039-1.539551,1.319336-1.759766,1.759766-4.619141.879883-4.619141.439941-1.979492.219727-3.299316.439941-2.639648-.439941-3.299316-1.099609-3.958984-1.099609-3.519043-2.639648-4.179199-3.739258-2.419922-3.079102-.879395-4.179199-1.319824-4.179199-.220215-3.299316-.219727-1.979492-.220215h-1.97998l-2.419434-.219727-2.63916.439941h-14.737305l-3.079102-.220215h-3.519531l-3.958984.220215-3.299316-.660156h-6.818848l-5.278809.660156-1.319824.439941-.659668,1.539551-.220215,2.859375-.219727,5.71875v7.038574l-.220215,5.059082.220215,7.038574-.220215,6.598633.660156,3.959473,3.299316,1.979492,2.859375.659668,2.859375.220215,3.958984-.439941,2.419434.439941,4.839355.219727h4.619141l1.319336.220215,4.839355-.220215h5.938477l9.238281.879883h7.478516Z"/>
      <path d="M816.895508,158.147949l-7.039062.219727-4.618652-.879395-2.859375-1.97998-3.07959-3.958984-3.739258-5.059082-8.79834-12.537598-4.179199-5.498535-2.199219-3.07959-4.839355-7.258301-5.278809-7.478516-3.958984-5.059082-3.299316-3.739258-2.199707-3.299316-1.979492-1.979492-4.619141-6.598633-2.859375-3.519531-1.979492-1.979492-1.540039-2.859375-2.63916-2.859375-5.059082-6.818848-4.179199-6.158691-2.639648-3.519043-2.859375-3.07959-1.759277-2.419434-1.319824-1.319824-2.199707-.879883-1.979492,1.100098-.220215,4.178711.220215,5.059082v4.399414l-.220215,4.618652.439941,6.818848v9.018066l.220215,9.018066.219727,5.499023.660156,4.179199-.220215,6.818848v9.237793l-.439941,6.158691v3.299316l-.219727,4.619141.219727,3.519531-.219727,2.859375v3.958984l-.439941,3.519531-1.539551,2.859375-2.199707,1.539551-1.979492.660156-3.519531.659668h-2.859375l-1.539551.219727-4.619141-.219727-4.619141-3.07959-1.759766-3.299316-.659668-3.519043.219727-3.959473.439941-4.178711-.219727-4.179199v-2.859375l-.220215-3.959473v-4.179199l.439941-3.079102-.219727-5.719238-.439941-4.178711-.660156-4.179199.220215-6.598633v-3.739258l-.220215-3.739258.220215-3.959473v-2.419434l.439941-6.158691v-6.598633l-.439941-3.299316v-1.979492l.439941-3.519531-.439941-3.958984v-1.540039l.439941-3.958984-.220215-5.499023.220215-4.838867-.439941-3.739258.219727-2.199707-.219727-2.859375-.220215-4.398926-.219727-3.959473v-5.938477l.219727-4.179199.220215-2.639648v-2.199219l.439941-3.519531.439941-2.859375,1.099609-.879883,3.959473-2.199707,3.299316-.219727,4.179199-.220215,4.838867.439941,4.619141.879883,2.859375,1.979492,3.519043,4.399414,2.199707,3.299316,3.739258,5.278809,3.07959,4.838867,2.859375,3.519531,2.859375,4.398926,3.079102,3.959473,1.319824,1.759277,2.199707,3.959473,2.419434,3.079102,3.739258,4.179199,2.859375,3.959473,2.419434,2.63916,4.399414,5.279297,5.278809,7.038574,3.299316,5.278809,5.278809,7.038574,2.199707,2.419434,1.759277,2.639648,2.859863,4.179199,3.958984,4.618652,3.958984,6.15918,2.199707,2.63916,1.539551,1.979492,2.199707,1.759766h2.419434l.660156-1.099609.439941-4.838867.219727-4.619141v-21.995605l.439941-6.158691v-3.959473l-.219727-4.179199v-3.958984l.439941-3.07959v-14.736816l-.439941-2.199707.219727-3.519043-.219727-4.399414v-3.519043l-.220215-3.299316v-6.158691l.220215-4.179199,1.099609-3.959473,1.759766-1.319336,2.419434-1.319824,1.979492-.439941,2.859375-.220215,2.419434-.659668h6.378906l2.63916,1.319824,1.97998,2.199219,1.539551,3.519531.439941,5.71875-.439941,5.059082-.219727,2.419434.439453,4.179199-.219727,3.299316.219727,3.07959-.219727,3.299316.219727,2.199219v8.578613l.220215,6.378418v11.437988l.659668,3.299316v1.979492l-.439941,2.859375.439941,4.619141-.219727,2.419434.219727,1.979492-.659668,2.419434v25.955078l-.220215,6.158691.220215,3.299316v24.85498l.659668,3.739258-.439941,5.278809-2.419434,2.199707-1.759766.659668-2.199219.439941-4.838867-.439941Z"/>
      <path d="M962.722656,158.587891l-1.540039-.220215-1.979492.220215-5.058594-.439941-4.399414.219727-2.859375-.219727-6.15918.219727h-4.618164l-4.179688-.219727h-3.519531l-3.079102.439941-3.519531-.220215-1.099609.220215-4.838867-.439941h-6.598633l-7.258789-.219727-7.917969.219727h-7.039062l-3.519531-.219727-3.518555-1.97998-2.639648-4.398926-.44043-5.278809v-15.617188l-.219727-6.818359.219727-5.059082v-6.818359l-.219727-4.179199-.219727-4.619141-.219727-2.199707v-3.079102l.219727-3.299316v-5.279297l-.219727-.659668.219727-1.979492-.219727-2.639648v-1.979492l-.219727-5.278809.219727-9.238281.219727-6.158691v-3.739258l-.219727-6.378906v-14.296875l-.44043-3.739258.220703-2.859375v-2.639648l.219727-4.179199v-2.419434l.219727-4.179199.219727-5.938965.879883-2.859375,1.540039-2.419434,2.418945-1.539551,1.759766-.879883,2.419922-.439941h6.378906l9.237305.439941h14.517578l6.158203-.219727,4.619141-.220215,6.819336-.219727h14.296875l4.838867.659668h4.838867l3.519531-.439941,6.15918.220215,3.518555.219727,8.798828-.439941,2.418945.220215,3.299805-.220215,3.519531.439941,3.298828,1.319824,1.759766,2.63916,1.319336,4.399414.44043,4.619141-.219727,2.859375-1.320312,3.958984-2.418945,3.07959-2.419922.879883-5.058594.439941-7.918945.219727-4.619141.220215-1.979492-.220215-7.038086.439941h-10.337891l-8.358398-.219727-5.05957-.220215h-2.199219l-4.399414.439941-11.657227.219727h-3.958984l-4.839844.220215h-4.178711l-3.958984,1.099609-.660156,3.519531-.219727,3.739258-.44043,1.539551v3.739258l-.219727,5.059082.44043,5.498535-.220703,5.719238,1.100586,5.058594,2.638672,1.540039h1.759766l4.838867.659668,5.719727-.439941h3.738281l4.619141.439941,4.839844-.439941,16.71582-.219727h12.097656l3.299805.219727,3.739258,1.100098,2.639648,2.63916.879883,2.419434.439453,2.199707.219727,1.759766.44043,5.059082-.660156,4.618652-1.540039,2.639648-4.398438,2.199707h-11.658203l-12.756836.659668-7.039062-.219727h-2.418945l-9.018555-.220215-2.639648.220215-3.958984-.220215-5.279297.220215-2.638672.439941-2.860352.879395-1.539062,1.319824-.219727,3.07959-.220703,3.299316-.439453,3.739258v4.838867l.219727,3.299316v4.179199l-.219727,3.519531v5.938477l1.979492,5.71875,6.15918,2.639648h15.396484l6.15918-.219727,6.158203.219727,12.537109-.219727,4.619141-.439941h13.197266l2.639648.439941h4.179688l6.818359.219727,5.499023.439941h2.859375l1.759766.439941,1.979492,1.319824,1.319336,1.979492.660156,3.958984-.219727,4.619141v2.639648l-.44043,2.419434-.879883,2.639648-1.319336,1.759277-1.540039.879883-2.199219.660156-10.998047,1.099609-5.71875.659668h-6.158203l-4.399414-.219727Z"/>
      <path d="M1084.354492,158.147949l-1.319336-.439941-1.319336-.659668-1.759766-1.319824-1.099609-1.979492-.660156-1.97998-.44043-2.63916-.439453-2.419434v-6.158691l.219727-8.358398v-5.279297l-.219727-4.178711.439453-4.399414.220703-3.299316-.44043-2.199707-.219727-6.818359-.219727-10.118164-1.540039-6.378418-1.540039-2.199707-.879883-1.979492-1.979492-3.299316-1.759766-1.759766-1.758789-2.859375-2.859375-3.07959-1.320312-1.319336-1.319336-2.199707-2.639648-3.07959-1.759766-1.979492-1.319336-2.199707-2.419922-2.199219-1.759766-1.540039-2.859375-3.519043-3.298828-3.739258-1.980469-2.859375-1.758789-2.419434-4.399414-5.059082-3.519531-4.619141-2.639648-3.958984-3.079102-3.299316-2.859375-3.519531-1.099609-1.759766-1.979492-2.63916-1.759766-3.519531-.660156-2.419434v-2.859375l1.540039-2.639648,1.539062-1.979492,2.200195-1.319824,4.399414-3.299316,1.979492-.439941,2.418945-1.099609,4.179688.439941,4.398438,3.739258,4.399414,5.059082,3.958984,3.739258,1.979492,2.199219,2.859375,3.739258,2.419922,3.519531,3.519531,4.619141,2.859375,3.519043,3.079102,4.619141,1.979492,2.639648,2.199219,3.079102,2.200195,3.299316.660156.879883.65918.660156,1.759766,2.199219,2.419922,2.859375,2.199219,2.419922,2.639648,2.859375,2.639648,2.419434,1.979492.879883,1.759766-.439941,1.539062-.660156,4.399414-4.398926,1.319336-1.979492,1.759766-1.97998,1.540039-2.199219,1.319336-1.540039,1.540039-1.759277,1.759766-2.419434,2.199219-2.639648,1.759766-2.199707,1.540039-1.979492,1.099609-1.099609,1.759766-1.97998,1.979492-2.63916,1.319336-1.319824,1.759766-2.199707,1.979492-2.419434,1.099609-1.539551,1.320312-1.539551.660156-1.319824.439453-.660156,1.759766-1.759277,1.979492-2.419434,1.319336-1.759766,1.759766-1.979492,2.419922-3.07959,1.539062-2.199707,1.540039-1.319824,3.519531-2.63916,4.178711-1.759766,3.080078,1.099609,9.897461,7.918457,1.979492,2.419922.44043,2.419434-2.419922,5.058594-2.199219,3.519531-3.519531,4.179199-3.298828,4.619141-2.200195,2.859375-3.739258,4.179199-4.619141,4.838867-2.418945,3.07959-4.838867,6.598633-3.299805,4.618652-3.739258,4.179199-3.079102,3.959473-1.979492,1.979492-2.639648,3.299316-1.540039,1.759766-.879883,1.539551-2.639648,3.299316-3.079102,4.179199-2.418945,3.958984-1.980469,4.399414-.439453,6.158691v11.657715l.219727,6.598633-.65918,9.238281-.220703,7.258301.44043,7.918457-.219727,7.478516v3.079102l-.879883,2.199707-1.759766,2.639648-2.639648,1.319824-5.058594.439453h-3.959961l-4.619141-.219727Z"/>
      <path d="M1202.686523,158.147949l-4.399414-2.199707-1.979492-4.179199-.219727-4.838867-.439453-2.419434v-4.398926l.439453-3.959473-.219727-4.398926-.219727-4.839355.219727-4.178711-.44043-5.719238v-5.938477l.220703-3.07959-.44043-5.938965.219727-7.478027v-3.519531l-.439453-6.158691v-8.358398l.219727-2.859375.219727-6.158691v-8.578125l-.219727-8.79834v-13.197266l.219727-2.859375v-11.217773l-.219727-5.059082-.439453-4.398926v-3.739258l.439453-1.759766,1.540039-2.419434,1.759766-1.319824,4.178711-.660156,4.399414-.439453h1.539062l3.299805-.220215,3.958984.659668,1.759766,1.100098,1.540039,1.539551,1.539062,3.299316,2.419922,3.739258,2.639648,4.838867,2.418945,5.279297,3.958984,6.818359,2.860352,5.278809,2.638672,5.719238,4.179688,8.35791,2.639648,4.399414,2.418945,5.499023,2.419922,4.178711,1.099609,2.199707,1.099609,1.979492,1.319336,2.639648,2.200195,5.278809,3.079102,5.499023,2.199219,4.398926,1.320312,2.859375,1.099609,2.199707,1.540039,2.639648,2.418945,4.619141,2.419922,5.058594,2.199219,3.299316,1.979492,3.739258,1.099609,2.859375,1.320312.660156,1.099609-.660156,1.540039-2.199219,1.539062-2.419434,1.540039-2.859863,2.639648-5.498535,2.418945-4.839355,1.320312-2.859375,1.759766-2.63916,1.319336-1.540039.660156-1.759277.65918-1.979492,2.200195-3.299805,1.539062-3.299316,1.320312-1.979492,1.979492-3.739258,2.199219-4.619141,1.979492-4.179199,1.979492-4.398926,1.980469-3.958984,2.199219-3.299316,2.419922-5.279297,2.859375-5.278809,2.638672-5.938965,3.299805-6.598633,1.979492-4.178711.660156-2.419922,1.759766-3.079102.879883-2.639648,2.199219-4.398926,3.298828-5.278809,2.639648-1.759766,2.639648-.879883,9.898438-.879883,3.958984.439941,3.519531,1.319824,1.319336,1.979492.439453,1.539551.44043,3.519531v22.215332l-.219727,4.619141.219727,5.059082v19.795898l.219727,5.499023v3.079102l-.219727,4.619141.660156,6.598633-.220703,5.278809.44043,6.818848v16.716797l-.219727,5.498535v3.519531l-.220703,2.859375.220703,4.838867.219727,4.399414-.219727,5.71875.219727,6.598633-.44043,4.838867-1.099609,3.959473-1.319336,1.539551-2.200195,1.319824-1.758789.659668-2.639648.659668-3.739258-.219727h-2.859375l-2.200195-.439941-2.199219-.659668-2.639648-1.319824-2.859375-6.158691-.660156-6.818848.220703-4.619141v-7.258301l-.220703-9.238281v-18.256348l-.65918-7.258301.439453-4.839355v-3.519043l.219727-4.838867v-4.179199l-.219727-2.419434v-5.719238l-.219727-.659668-.660156-.439941-.439453.439941-1.099609,1.539551-.660156,1.97998-1.540039,2.63916-1.099609,2.199707-1.319336,2.199707-1.540039,3.079102-1.979492,4.398926-2.199219,4.839355-2.419922,3.519043-2.199219,3.739258-1.979492,3.959473-1.540039,3.299316-2.419922,4.398926-3.298828,6.158691-1.540039,3.739258-1.539062,4.179199-2.859375,5.278809-1.100586,2.639648-1.099609,1.539551-.879883,1.979492-1.099609,1.759766-.879883,1.759766-2.418945,4.619141-1.980469,4.179199-.439453,1.319824-1.979492,2.859375-3.958984,2.859375-2.859375.439941-2.639648.219727-3.079102.220215-3.080078-.220215-2.418945-1.099609-2.419922-3.299316-2.639648-5.499023-1.759766-3.299316-1.758789-3.958984-2.419922-5.279297-2.199219-3.958984-1.320312-3.07959-.879883-1.979492-1.099609-2.199707-4.619141-7.698242-1.099609-1.539551-2.199219-4.839355-2.200195-4.618652-1.099609-2.199707-2.418945-3.739258-2.639648-6.158691-2.200195-4.399414-1.539062-3.519043-2.639648-4.398926-2.639648-5.719238-2.639648-4.838867-1.539062-1.759766-.660156.660156v3.299316l-.219727,5.058594v3.739258l.219727,1.759766v2.859375l-.219727,3.299316.439453,6.378906v4.398926l-.219727,8.358398-.219727,3.519531v9.458008l.219727,5.278809-.219727,3.739258.439453,3.958984v3.07959l.44043,4.838867v3.959473l-.660156,6.158691-.660156,2.419434-2.199219,2.859375-7.258789,1.979492h-4.838867l-3.739258-1.099609Z"/>
      <path d="M1405.702148,160.787598l-2.859375-.660156-3.958984-1.979492-3.080078-2.419434-2.199219-2.639648-.879883-2.63916v-3.959473l1.979492-3.958984,1.319336-3.299316,1.100586-2.419434,1.319336-2.639648,1.979492-4.619141,1.320312-3.519043,4.178711-8.358398,2.199219-4.839355,1.979492-5.058594,3.519531-6.818848,2.200195-5.059082,1.539062-3.079102,1.540039-3.299316,1.759766-3.739258,3.079102-7.918457,2.639648-4.619141,1.759766-4.838867,3.079102-6.598633,3.519531-8.138672,1.979492-4.398926,3.298828-8.358398,2.419922-5.059082,1.099609-3.299316,1.979492-3.739258,1.540039-3.079102.439453-1.759766.879883-2.199707,1.099609-3.079102,1.540039-2.199707,1.319336-2.63916,1.320312-2.419922.879883-1.759277,1.539062-2.639648,2.639648-2.199707,5.499023-1.099609h5.938477l2.860352.659668,2.418945,2.199707,1.540039,2.859375,1.319336,2.639648,2.199219,5.059082,2.200195,4.838867,4.178711,8.138184,1.320312,3.519531,1.539062,2.859375,1.320312,3.958984,1.759766,3.959473,1.099609,3.079102,1.539062,3.07959,2.419922,5.499023,2.419922,4.838867,1.539062,3.958984,1.540039,2.639648.879883,2.419434,1.539062,3.299316,1.980469,3.519531,1.319336,3.519043,1.319336,3.739258,1.320312,2.199707,1.099609,2.859375,2.199219,3.958984,1.759766,4.399414,2.859375,6.818359,3.958984,7.478516,2.200195,5.278809,1.539062,3.299316.879883,1.97998.879883,2.859375,2.639648,5.278809,1.979492,4.179199,1.099609,1.759766,1.979492,4.179199,1.540039,4.618652,1.099609,3.739258-.879883,4.839355-2.418945,2.859375-4.399414,2.199219-7.698242,1.97998-5.05957-1.100098-1.979492-1.759277-2.199219-2.199707-.660156-2.859375-1.979492-4.179199-2.418945-5.059082-1.320312-2.419434-1.979492-4.398926-2.418945-5.059082-.879883-1.979492-1.540039-2.639648-1.979492-3.519531-1.540039-2.859375-2.199219-1.539551-4.399414-.439941-5.499023.220215h-25.734375l-7.258789-.220215-5.71875.439941-3.079102-.219727-3.739258.439453-3.519531.220215-2.859375,1.539551-1.319336,1.979492-4.399414,8.79834-2.199219,3.959473-.660156,2.419434-1.099609,2.199707-1.320312,3.079102-1.759766,3.739258-1.099609,3.299316-2.199219,3.519531-2.639648,3.958984-2.418945,1.979492-3.519531.879883-3.739258-.219727ZM1483.786133,93.920898l.219727-.219727.660156-.220215.879883-1.979492-.660156-3.958984-1.319336-3.299316-4.838867-8.578613-2.200195-4.179199-2.859375-7.038574-1.759766-4.179199-1.539062-3.958984-2.419922-5.71875-2.639648-2.199707-1.759766,3.519531-1.758789,5.498535-3.739258,8.358398-2.859375,5.938965-1.980469,5.498535-1.758789,3.959473-2.200195,4.398926-.219727,1.759766-.44043,1.979492v2.199707l1.540039,1.539551,3.739258.220215h3.958984l6.15918.439941,14.737305.439941,5.058594-.220215Z"/>
      <path d="M1694.71875,158.147949l-7.039062.219727-4.619141-.879395-2.859375-1.97998-3.079102-3.958984-3.739258-5.059082-8.797852-12.537598-4.179688-5.498535-2.199219-3.07959-4.838867-7.258301-5.279297-7.478516-3.958984-5.059082-3.299805-3.739258-2.199219-3.299316-1.979492-1.979492-4.619141-6.598633-2.859375-3.519531-1.979492-1.979492-1.540039-2.859375-2.639648-2.859375-5.058594-6.818848-4.179688-6.158691-2.638672-3.519043-2.859375-3.07959-1.759766-2.419434-1.320312-1.319824-2.199219-.879883-1.979492,1.100098-.219727,4.178711.219727,5.059082v4.399414l-.219727,4.618652.439453,6.818848v9.018066l.219727,9.018066.220703,5.499023.65918,4.179199-.219727,6.818848v9.237793l-.439453,6.158691v3.299316l-.220703,4.619141.220703,3.519531-.220703,2.859375v3.958984l-.439453,3.519531-1.540039,2.859375-2.199219,1.539551-1.979492.660156-3.519531.659668h-2.859375l-1.540039.219727-4.619141-.219727-4.618164-3.07959-1.759766-3.299316-.660156-3.519043.219727-3.959473.44043-4.178711-.220703-4.179199v-2.859375l-.219727-3.959473v-4.179199l.44043-3.079102-.220703-5.719238-.439453-4.178711-.660156-4.179199.219727-6.598633v-3.739258l-.219727-3.739258.219727-3.959473v-2.419434l.44043-6.158691v-6.598633l-.44043-3.299316v-1.979492l.44043-3.519531-.44043-3.958984v-1.540039l.44043-3.958984-.219727-5.499023.219727-4.838867-.44043-3.739258.220703-2.199707-.220703-2.859375-.219727-4.398926-.219727-3.959473v-5.938477l.219727-4.179199.219727-2.639648v-2.199219l.44043-3.519531.439453-2.859375,1.100586-.879883,3.958984-2.199707,3.298828-.219727,4.179688-.220215,4.838867.439941,4.619141.879883,2.859375,1.979492,3.519531,4.399414,2.199219,3.299316,3.739258,5.278809,3.079102,4.838867,2.859375,3.519531,2.859375,4.398926,3.080078,3.959473,1.319336,1.759277,2.199219,3.959473,2.419922,3.079102,3.739258,4.179199,2.859375,3.959473,2.419922,2.63916,4.398438,5.279297,5.279297,7.038574,3.298828,5.278809,5.279297,7.038574,2.199219,2.419434,1.759766,2.639648,2.859375,4.179199,3.959961,4.618652,3.958984,6.15918,2.199219,2.63916,1.540039,1.979492,2.199219,1.759766h2.419922l.65918-1.099609.44043-4.838867.219727-4.619141v-21.995605l.44043-6.158691v-3.959473l-.220703-4.179199v-3.958984l.44043-3.07959v-14.736816l-.44043-2.199707.220703-3.519043-.220703-4.399414v-3.519043l-.219727-3.299316v-6.158691l.219727-4.179199,1.099609-3.959473,1.759766-1.319336,2.419922-1.319824,1.979492-.439941,2.859375-.220215,2.419922-.659668h6.37793l2.639648,1.319824,1.979492,2.199219,1.540039,3.519531.439453,5.71875-.439453,5.059082-.219727,2.419434.439453,4.179199-.219727,3.299316.219727,3.07959-.219727,3.299316.219727,2.199219v8.578613l.219727,6.378418v11.437988l.660156,3.299316v1.979492l-.439453,2.859375.439453,4.619141-.219727,2.419434.219727,1.979492-.660156,2.419434v25.955078l-.219727,6.158691.219727,3.299316v24.85498l.660156,3.739258-.439453,5.278809-2.419922,2.199707-1.759766.659668-2.199219.439941-4.838867-.439941Z"/>
    </g>
  </g>
</svg>